STARTFONT 2.1
COMMENT
COMMENT Converted from OpenType font "PixelifySans-Regular.ttf" by "otf2bdf 3.0".
COMMENT
FONT -FreeType-Pixelify Sans-Medium-R-Normal--17-120-100-100-P-81-ISO10646-1
SIZE 12 100 100
FONTBOUNDINGBOX 20 19 -1 -4
STARTPROPERTIES 19
FOUNDRY "FreeType"
FAMILY_NAME "Pixelify Sans"
WEIGHT_NAME "Medium"
SLANT "R"
SETWIDTH_NAME "Normal"
ADD_STYLE_NAME ""
PIXEL_SIZE 17
POINT_SIZE 120
RESOLUTION_X 100
RESOLUTION_Y 100
SPACING "P"
AVERAGE_WIDTH 81
CHARSET_REGISTRY "ISO10646"
CHARSET_ENCODING "1"
FONT_ASCENT 15
FONT_DESCENT 4
COPYRIGHT "Copyright 2021 The Pixelify Sans Project Authors (https://github.com/eifetx/Pixelify-Sans)"
_OTF_FONTFILE "PixelifySans-Regular.ttf"
_OTF_PSNAME "PixelifySans-Regular"
ENDPROPERTIES
CHARS 574
STARTCHAR 0020
ENCODING 32
SWIDTH 180 0
DWIDTH 3 0
BBX 0 0 0 0
BITMAP
ENDCHAR
STARTCHAR 0021
ENCODING 33
SWIDTH 240 0
DWIDTH 4 0
BBX 2 11 1 0
BITMAP
C0
C0
C0
C0
C0
C0
C0
C0
00
00
C0
ENDCHAR
STARTCHAR 0022
ENCODING 34
SWIDTH 480 0
DWIDTH 8 0
BBX 6 4 1 7
BITMAP
D8
D8
44
48
ENDCHAR
STARTCHAR 0023
ENCODING 35
SWIDTH 660 0
DWIDTH 11 0
BBX 9 11 1 0
BITMAP
2300
2300
2300
FF80
FF80
2300
2300
2300
FF80
FF80
2300
ENDCHAR
STARTCHAR 0024
ENCODING 36
SWIDTH 600 0
DWIDTH 10 0
BBX 8 14 1 -2
BITMAP
18
3C
3C
C3
C3
C0
3C
3F
03
C3
C3
3C
18
18
ENDCHAR
STARTCHAR 0025
ENCODING 37
SWIDTH 840 0
DWIDTH 14 0
BBX 12 11 1 0
BITMAP
2030
2030
F8C0
F9C0
2180
0600
0E60
0C60
30F0
30F0
6060
ENDCHAR
STARTCHAR 0026
ENCODING 38
SWIDTH 660 0
DWIDTH 11 0
BBX 9 11 1 0
BITMAP
3C00
3C00
C300
E700
2400
1800
3C00
2400
C300
C300
3C80
ENDCHAR
STARTCHAR 0027
ENCODING 39
SWIDTH 240 0
DWIDTH 4 0
BBX 2 4 1 7
BITMAP
C0
C0
40
40
ENDCHAR
STARTCHAR 0028
ENCODING 40
SWIDTH 360 0
DWIDTH 6 0
BBX 5 16 1 -3
BITMAP
18
18
18
38
20
20
E0
C0
C0
E0
20
20
38
18
18
18
ENDCHAR
STARTCHAR 0029
ENCODING 41
SWIDTH 360 0
DWIDTH 6 0
BBX 5 16 0 -3
BITMAP
C0
C0
C0
F0
30
30
38
08
08
38
30
30
F0
C0
C0
C0
ENDCHAR
STARTCHAR 002A
ENCODING 42
SWIDTH 240 0
DWIDTH 4 0
BBX 2 4 1 7
BITMAP
40
C0
40
C0
ENDCHAR
STARTCHAR 002B
ENCODING 43
SWIDTH 600 0
DWIDTH 10 0
BBX 8 8 1 1
BITMAP
18
18
18
FF
FF
18
18
18
ENDCHAR
STARTCHAR 002C
ENCODING 44
SWIDTH 240 0
DWIDTH 4 0
BBX 2 4 1 -2
BITMAP
C0
C0
40
40
ENDCHAR
STARTCHAR 002D
ENCODING 45
SWIDTH 360 0
DWIDTH 6 0
BBX 5 2 0 3
BITMAP
F8
F8
ENDCHAR
STARTCHAR 002E
ENCODING 46
SWIDTH 240 0
DWIDTH 4 0
BBX 2 2 1 0
BITMAP
C0
C0
ENDCHAR
STARTCHAR 002F
ENCODING 47
SWIDTH 540 0
DWIDTH 9 0
BBX 7 11 1 0
BITMAP
06
04
0C
08
18
10
30
20
60
40
C0
ENDCHAR
STARTCHAR 0030
ENCODING 48
SWIDTH 600 0
DWIDTH 10 0
BBX 8 11 1 0
BITMAP
3C
3C
C3
C3
C3
C3
C3
C3
C3
C3
3C
ENDCHAR
STARTCHAR 0031
ENCODING 49
SWIDTH 420 0
DWIDTH 7 0
BBX 5 11 1 0
BITMAP
20
20
D8
D8
18
18
18
18
18
18
18
ENDCHAR
STARTCHAR 0032
ENCODING 50
SWIDTH 600 0
DWIDTH 10 0
BBX 8 11 1 0
BITMAP
3C
3C
C3
C3
03
3C
FC
C0
C3
C3
3C
ENDCHAR
STARTCHAR 0033
ENCODING 51
SWIDTH 600 0
DWIDTH 10 0
BBX 8 11 1 0
BITMAP
3C
3C
C3
C3
03
3C
3F
03
C3
C3
3C
ENDCHAR
STARTCHAR 0034
ENCODING 52
SWIDTH 600 0
DWIDTH 10 0
BBX 8 11 1 0
BITMAP
07
07
1B
3B
23
C3
FF
FF
03
03
03
ENDCHAR
STARTCHAR 0035
ENCODING 53
SWIDTH 600 0
DWIDTH 10 0
BBX 8 11 1 0
BITMAP
3C
3C
C3
C3
C3
20
3C
1C
C3
C3
3C
ENDCHAR
STARTCHAR 0036
ENCODING 54
SWIDTH 600 0
DWIDTH 10 0
BBX 8 11 1 0
BITMAP
3C
3C
C3
C3
C0
FC
FF
C3
C3
C3
3C
ENDCHAR
STARTCHAR 0037
ENCODING 55
SWIDTH 600 0
DWIDTH 10 0
BBX 8 11 1 0
BITMAP
3C
3C
C3
C3
03
03
03
03
03
03
03
ENDCHAR
STARTCHAR 0038
ENCODING 56
SWIDTH 600 0
DWIDTH 10 0
BBX 8 11 1 0
BITMAP
3C
3C
C3
C3
C3
3C
FF
C3
C3
C3
3C
ENDCHAR
STARTCHAR 0039
ENCODING 57
SWIDTH 600 0
DWIDTH 10 0
BBX 8 11 1 0
BITMAP
3C
3C
C3
C3
C3
3F
3F
03
C3
C3
3C
ENDCHAR
STARTCHAR 003A
ENCODING 58
SWIDTH 240 0
DWIDTH 4 0
BBX 2 5 1 1
BITMAP
C0
C0
00
C0
C0
ENDCHAR
STARTCHAR 003B
ENCODING 59
SWIDTH 240 0
DWIDTH 4 0
BBX 2 6 1 0
BITMAP
C0
C0
00
C0
C0
40
ENDCHAR
STARTCHAR 003C
ENCODING 60
SWIDTH 600 0
DWIDTH 10 0
BBX 8 14 1 -2
BITMAP
03
03
04
18
18
20
C0
C0
20
18
18
04
03
03
ENDCHAR
STARTCHAR 003D
ENCODING 61
SWIDTH 600 0
DWIDTH 10 0
BBX 6 5 2 2
BITMAP
FC
FC
00
FC
FC
ENDCHAR
STARTCHAR 003E
ENCODING 62
SWIDTH 600 0
DWIDTH 10 0
BBX 8 14 1 -2
BITMAP
C0
C0
20
18
18
04
03
03
04
18
18
20
C0
C0
ENDCHAR
STARTCHAR 003F
ENCODING 63
SWIDTH 600 0
DWIDTH 10 0
BBX 8 11 1 0
BITMAP
3C
3C
C3
C3
C3
1C
1C
18
00
00
18
ENDCHAR
STARTCHAR 0040
ENCODING 64
SWIDTH 600 0
DWIDTH 10 0
BBX 8 7 1 1
BITMAP
38
46
99
A5
A6
58
38
ENDCHAR
STARTCHAR 0041
ENCODING 65
SWIDTH 600 0
DWIDTH 10 0
BBX 8 11 1 0
BITMAP
18
18
24
E7
C3
C3
FF
FF
C3
C3
C3
ENDCHAR
STARTCHAR 0042
ENCODING 66
SWIDTH 600 0
DWIDTH 10 0
BBX 8 11 1 0
BITMAP
3C
3C
C3
C3
C3
DC
DF
C3
C3
C3
3C
ENDCHAR
STARTCHAR 0043
ENCODING 67
SWIDTH 600 0
DWIDTH 10 0
BBX 8 11 1 0
BITMAP
3C
3C
C3
C3
C3
C0
C3
C3
C3
C3
3C
ENDCHAR
STARTCHAR 0044
ENCODING 68
SWIDTH 600 0
DWIDTH 10 0
BBX 8 11 1 0
BITMAP
F8
F8
C4
C7
C3
C3
C3
C3
C4
C4
F8
ENDCHAR
STARTCHAR 0045
ENCODING 69
SWIDTH 600 0
DWIDTH 10 0
BBX 8 11 1 0
BITMAP
3C
3C
C3
C3
C0
F8
F8
C0
C3
C3
3C
ENDCHAR
STARTCHAR 0046
ENCODING 70
SWIDTH 600 0
DWIDTH 10 0
BBX 8 11 1 0
BITMAP
FC
FC
C3
C3
C0
F8
F8
C0
C0
C0
C0
ENDCHAR
STARTCHAR 0047
ENCODING 71
SWIDTH 600 0
DWIDTH 10 0
BBX 8 11 1 0
BITMAP
3C
3C
C3
C3
C3
D8
DF
C7
C3
C3
3C
ENDCHAR
STARTCHAR 0048
ENCODING 72
SWIDTH 600 0
DWIDTH 10 0
BBX 8 11 1 0
BITMAP
C3
C3
C3
DB
DB
FF
FF
C3
C3
C3
C3
ENDCHAR
STARTCHAR 0049
ENCODING 73
SWIDTH 420 0
DWIDTH 7 0
BBX 5 11 1 0
BITMAP
F8
F8
20
20
20
20
20
20
20
20
F8
ENDCHAR
STARTCHAR 004A
ENCODING 74
SWIDTH 600 0
DWIDTH 10 0
BBX 8 11 1 0
BITMAP
3C
3C
03
03
03
03
C3
C3
C3
C3
3C
ENDCHAR
STARTCHAR 004B
ENCODING 75
SWIDTH 600 0
DWIDTH 10 0
BBX 8 11 1 0
BITMAP
23
23
C4
DC
D8
E0
F8
D8
C4
C4
C3
ENDCHAR
STARTCHAR 004C
ENCODING 76
SWIDTH 600 0
DWIDTH 10 0
BBX 8 11 1 0
BITMAP
C0
C0
C0
C0
C0
C0
C0
C0
C3
C3
3C
ENDCHAR
STARTCHAR 004D
ENCODING 77
SWIDTH 780 0
DWIDTH 13 0
BBX 11 11 1 0
BITMAP
2080
2080
DB60
DB60
DB60
C460
C460
C460
C460
C460
C060
ENDCHAR
STARTCHAR 004E
ENCODING 78
SWIDTH 600 0
DWIDTH 10 0
BBX 8 11 1 0
BITMAP
C3
C3
E3
FB
DB
DB
DB
DB
C7
C7
C3
ENDCHAR
STARTCHAR 004F
ENCODING 79
SWIDTH 600 0
DWIDTH 10 0
BBX 8 11 1 0
BITMAP
3C
3C
C3
C3
C3
C3
C3
C3
C3
C3
3C
ENDCHAR
STARTCHAR 0050
ENCODING 80
SWIDTH 600 0
DWIDTH 10 0
BBX 8 11 1 0
BITMAP
3C
3C
C3
C3
C3
C3
FF
FC
C0
C0
C0
ENDCHAR
STARTCHAR 0051
ENCODING 81
SWIDTH 600 0
DWIDTH 10 0
BBX 8 14 1 -3
BITMAP
3C
3C
C3
C3
C3
C3
C3
C3
C3
C3
3C
18
18
04
ENDCHAR
STARTCHAR 0052
ENCODING 82
SWIDTH 600 0
DWIDTH 10 0
BBX 8 11 1 0
BITMAP
3C
3C
C3
C3
C3
C3
FF
FC
C8
C8
C6
ENDCHAR
STARTCHAR 0053
ENCODING 83
SWIDTH 600 0
DWIDTH 10 0
BBX 8 11 1 0
BITMAP
3C
3C
C3
C3
C0
3C
3F
03
C3
C3
3C
ENDCHAR
STARTCHAR 0054
ENCODING 84
SWIDTH 600 0
DWIDTH 10 0
BBX 8 11 1 0
BITMAP
3C
3C
DB
DB
18
18
18
18
18
18
18
ENDCHAR
STARTCHAR 0055
ENCODING 85
SWIDTH 600 0
DWIDTH 10 0
BBX 8 11 1 0
BITMAP
C3
C3
C3
C3
C3
C3
C3
C3
C3
C3
3C
ENDCHAR
STARTCHAR 0056
ENCODING 86
SWIDTH 600 0
DWIDTH 10 0
BBX 8 11 1 0
BITMAP
C3
C3
C3
C3
C3
C3
E7
24
24
24
18
ENDCHAR
STARTCHAR 0057
ENCODING 87
SWIDTH 780 0
DWIDTH 13 0
BBX 11 11 1 0
BITMAP
C060
C060
C460
C460
C460
C460
DF60
DB60
DB60
DB60
2080
ENDCHAR
STARTCHAR 0058
ENCODING 88
SWIDTH 600 0
DWIDTH 10 0
BBX 8 11 1 0
BITMAP
C3
C3
24
24
24
18
3C
24
24
24
C3
ENDCHAR
STARTCHAR 0059
ENCODING 89
SWIDTH 600 0
DWIDTH 10 0
BBX 8 11 1 0
BITMAP
C3
C3
C3
E7
24
18
18
18
18
18
18
ENDCHAR
STARTCHAR 005A
ENCODING 90
SWIDTH 600 0
DWIDTH 10 0
BBX 8 11 1 0
BITMAP
FC
FC
C3
C3
03
3C
FC
C0
C3
C3
3F
ENDCHAR
STARTCHAR 005B
ENCODING 91
SWIDTH 360 0
DWIDTH 6 0
BBX 5 12 1 -1
BITMAP
38
C0
C0
C0
C0
C0
C0
C0
C0
C0
F8
38
ENDCHAR
STARTCHAR 005C
ENCODING 92
SWIDTH 540 0
DWIDTH 9 0
BBX 7 11 1 0
BITMAP
80
40
40
60
20
30
10
18
08
0C
06
ENDCHAR
STARTCHAR 005D
ENCODING 93
SWIDTH 360 0
DWIDTH 6 0
BBX 5 12 0 -1
BITMAP
F0
08
08
08
08
08
08
08
08
08
F8
F0
ENDCHAR
STARTCHAR 005E
ENCODING 94
SWIDTH 240 0
DWIDTH 4 0
BBX 2 2 1 9
BITMAP
40
C0
ENDCHAR
STARTCHAR 005F
ENCODING 95
SWIDTH 420 0
DWIDTH 7 0
BBX 5 2 1 0
BITMAP
F8
F8
ENDCHAR
STARTCHAR 0060
ENCODING 96
SWIDTH 240 0
DWIDTH 4 0
BBX 2 2 1 9
BITMAP
80
40
ENDCHAR
STARTCHAR 0061
ENCODING 97
SWIDTH 660 0
DWIDTH 11 0
BBX 9 8 1 0
BITMAP
3C00
3C00
C300
C300
C300
C300
C300
3C80
ENDCHAR
STARTCHAR 0062
ENCODING 98
SWIDTH 600 0
DWIDTH 10 0
BBX 8 11 1 0
BITMAP
C0
C0
C0
FC
FC
C3
C3
C3
C3
C3
3C
ENDCHAR
STARTCHAR 0063
ENCODING 99
SWIDTH 600 0
DWIDTH 10 0
BBX 8 8 1 0
BITMAP
3C
3C
C3
C3
C0
C3
C3
3C
ENDCHAR
STARTCHAR 0064
ENCODING 100
SWIDTH 600 0
DWIDTH 10 0
BBX 8 11 1 0
BITMAP
03
03
03
3F
3F
C3
C3
C3
C3
C3
3C
ENDCHAR
STARTCHAR 0065
ENCODING 101
SWIDTH 600 0
DWIDTH 10 0
BBX 8 8 1 0
BITMAP
3C
3C
C3
FB
F8
C3
C3
3C
ENDCHAR
STARTCHAR 0066
ENCODING 102
SWIDTH 600 0
DWIDTH 10 0
BBX 8 11 1 0
BITMAP
3C
3C
C3
C3
C0
F8
F8
C0
C0
C0
C0
ENDCHAR
STARTCHAR 0067
ENCODING 103
SWIDTH 600 0
DWIDTH 10 0
BBX 8 11 1 -3
BITMAP
3C
3C
C3
C3
C3
3F
3F
03
C3
C3
3C
ENDCHAR
STARTCHAR 0068
ENCODING 104
SWIDTH 600 0
DWIDTH 10 0
BBX 8 11 1 0
BITMAP
C0
C0
C0
DC
DC
E3
E3
C3
C3
C3
C3
ENDCHAR
STARTCHAR 0069
ENCODING 105
SWIDTH 240 0
DWIDTH 4 0
BBX 2 11 1 0
BITMAP
C0
C0
00
C0
C0
C0
C0
C0
C0
C0
C0
ENDCHAR
STARTCHAR 006A
ENCODING 106
SWIDTH 480 0
DWIDTH 8 0
BBX 6 8 1 0
BITMAP
04
04
04
04
04
C4
C4
38
ENDCHAR
STARTCHAR 006B
ENCODING 107
SWIDTH 600 0
DWIDTH 10 0
BBX 8 11 1 0
BITMAP
C0
C0
C0
C3
C3
DC
FC
E0
DC
DC
C3
ENDCHAR
STARTCHAR 006C
ENCODING 108
SWIDTH 240 0
DWIDTH 4 0
BBX 2 11 1 0
BITMAP
C0
C0
C0
C0
C0
C0
C0
C0
C0
C0
C0
ENDCHAR
STARTCHAR 006D
ENCODING 109
SWIDTH 780 0
DWIDTH 13 0
BBX 11 8 1 0
BITMAP
FB80
FB80
C460
C460
C460
C460
C460
C460
ENDCHAR
STARTCHAR 006E
ENCODING 110
SWIDTH 600 0
DWIDTH 10 0
BBX 8 8 1 0
BITMAP
FC
FC
C3
C3
C3
C3
C3
C3
ENDCHAR
STARTCHAR 006F
ENCODING 111
SWIDTH 600 0
DWIDTH 10 0
BBX 8 8 1 0
BITMAP
3C
3C
C3
C3
C3
C3
C3
3C
ENDCHAR
STARTCHAR 0070
ENCODING 112
SWIDTH 600 0
DWIDTH 10 0
BBX 8 11 1 -3
BITMAP
3C
3C
C3
C3
C3
C3
C3
FC
C0
C0
C0
ENDCHAR
STARTCHAR 0071
ENCODING 113
SWIDTH 600 0
DWIDTH 10 0
BBX 8 11 1 -3
BITMAP
3C
3C
C3
C3
C3
C3
C3
3F
03
03
03
ENDCHAR
STARTCHAR 0072
ENCODING 114
SWIDTH 600 0
DWIDTH 10 0
BBX 8 8 1 0
BITMAP
3C
3C
C3
C3
C0
C0
C0
C0
ENDCHAR
STARTCHAR 0073
ENCODING 115
SWIDTH 600 0
DWIDTH 10 0
BBX 8 8 1 0
BITMAP
3F
3F
C0
FC
3C
03
03
FC
ENDCHAR
STARTCHAR 0074
ENCODING 116
SWIDTH 660 0
DWIDTH 11 0
BBX 9 11 1 0
BITMAP
2000
2000
2000
FF00
FF00
2000
2000
2000
2080
2080
1F00
ENDCHAR
STARTCHAR 0075
ENCODING 117
SWIDTH 600 0
DWIDTH 10 0
BBX 8 8 1 0
BITMAP
C3
C3
C3
C3
C3
C3
C3
3C
ENDCHAR
STARTCHAR 0076
ENCODING 118
SWIDTH 600 0
DWIDTH 10 0
BBX 8 8 1 0
BITMAP
C3
C3
C3
EF
6C
6C
6C
18
ENDCHAR
STARTCHAR 0077
ENCODING 119
SWIDTH 780 0
DWIDTH 13 0
BBX 11 8 1 0
BITMAP
C460
C460
C460
C460
C460
C460
C460
FB80
ENDCHAR
STARTCHAR 0078
ENCODING 120
SWIDTH 600 0
DWIDTH 10 0
BBX 8 8 1 0
BITMAP
C3
C3
24
3C
18
24
24
C3
ENDCHAR
STARTCHAR 0079
ENCODING 121
SWIDTH 600 0
DWIDTH 10 0
BBX 8 11 1 -3
BITMAP
C3
C3
C3
C3
C3
3F
3F
03
C3
C3
3C
ENDCHAR
STARTCHAR 007A
ENCODING 122
SWIDTH 600 0
DWIDTH 10 0
BBX 8 8 1 0
BITMAP
FF
FF
04
1C
18
20
20
FF
ENDCHAR
STARTCHAR 007B
ENCODING 123
SWIDTH 480 0
DWIDTH 8 0
BBX 7 14 0 -2
BITMAP
08
08
36
30
30
30
C0
C0
30
30
30
36
08
08
ENDCHAR
STARTCHAR 007C
ENCODING 124
SWIDTH 240 0
DWIDTH 4 0
BBX 2 11 1 0
BITMAP
C0
C0
C0
C0
C0
C0
C0
C0
C0
C0
C0
ENDCHAR
STARTCHAR 007D
ENCODING 125
SWIDTH 480 0
DWIDTH 8 0
BBX 7 14 0 -2
BITMAP
30
30
C8
08
08
08
06
06
08
08
08
C8
30
30
ENDCHAR
STARTCHAR 007E
ENCODING 126
SWIDTH 600 0
DWIDTH 10 0
BBX 4 2 3 3
BITMAP
D0
F0
ENDCHAR
STARTCHAR 00A0
ENCODING 160
SWIDTH 180 0
DWIDTH 3 0
BBX 0 0 0 0
BITMAP
ENDCHAR
STARTCHAR 00A1
ENCODING 161
SWIDTH 240 0
DWIDTH 4 0
BBX 2 11 1 0
BITMAP
C0
C0
00
C0
C0
C0
C0
C0
C0
C0
C0
ENDCHAR
STARTCHAR 00A2
ENCODING 162
SWIDTH 600 0
DWIDTH 10 0
BBX 8 11 1 0
BITMAP
18
18
3C
C3
C3
C0
C3
C3
3C
18
18
ENDCHAR
STARTCHAR 00A3
ENCODING 163
SWIDTH 660 0
DWIDTH 11 0
BBX 9 11 1 0
BITMAP
1F00
1F00
2080
2080
2000
3C00
3C00
2000
2080
2080
FF00
ENDCHAR
STARTCHAR 00A4
ENCODING 164
SWIDTH 480 0
DWIDTH 8 0
BBX 6 6 1 2
BITMAP
84
30
48
48
30
84
ENDCHAR
STARTCHAR 00A5
ENCODING 165
SWIDTH 600 0
DWIDTH 10 0
BBX 8 11 1 0
BITMAP
C3
C3
C3
E7
24
18
3C
3C
3C
3C
18
ENDCHAR
STARTCHAR 00A7
ENCODING 167
SWIDTH 600 0
DWIDTH 10 0
BBX 8 11 1 0
BITMAP
3C
3C
C3
C3
C0
3C
FF
FF
C0
C0
3F
ENDCHAR
STARTCHAR 00A8
ENCODING 168
SWIDTH 300 0
DWIDTH 5 0
BBX 5 2 0 8
BITMAP
D8
D8
ENDCHAR
STARTCHAR 00A9
ENCODING 169
SWIDTH 420 0
DWIDTH 7 0
BBX 5 4 1 6
BITMAP
F8
A8
A8
70
ENDCHAR
STARTCHAR 00AA
ENCODING 170
SWIDTH 420 0
DWIDTH 7 0
BBX 5 5 1 5
BITMAP
F0
90
F8
00
60
ENDCHAR
STARTCHAR 00AB
ENCODING 171
SWIDTH 900 0
DWIDTH 15 0
BBX 14 14 0 -2
BITMAP
010C
010C
0630
0860
0860
3180
C200
C200
3180
0860
0860
0630
010C
010C
ENDCHAR
STARTCHAR 00AC
ENCODING 172
SWIDTH 600 0
DWIDTH 10 0
BBX 6 4 2 3
BITMAP
FC
FC
0C
0C
ENDCHAR
STARTCHAR 00AE
ENCODING 174
SWIDTH 420 0
DWIDTH 7 0
BBX 5 4 1 6
BITMAP
F8
A8
88
70
ENDCHAR
STARTCHAR 00AF
ENCODING 175
SWIDTH 300 0
DWIDTH 5 0
BBX 5 2 0 9
BITMAP
F8
F8
ENDCHAR
STARTCHAR 00B0
ENCODING 176
SWIDTH 300 0
DWIDTH 5 0
BBX 3 3 1 7
BITMAP
60
A0
E0
ENDCHAR
STARTCHAR 00B1
ENCODING 177
SWIDTH 600 0
DWIDTH 10 0
BBX 6 8 2 0
BITMAP
30
30
FC
30
30
00
FC
FC
ENDCHAR
STARTCHAR 00B2
ENCODING 178
SWIDTH 360 0
DWIDTH 6 0
BBX 4 5 1 5
BITMAP
F0
10
60
90
60
ENDCHAR
STARTCHAR 00B3
ENCODING 179
SWIDTH 360 0
DWIDTH 6 0
BBX 4 6 1 5
BITMAP
60
90
10
60
90
60
ENDCHAR
STARTCHAR 00B4
ENCODING 180
SWIDTH 300 0
DWIDTH 5 0
BBX 2 2 1 9
BITMAP
40
80
ENDCHAR
STARTCHAR 00B5
ENCODING 181
SWIDTH 600 0
DWIDTH 10 0
BBX 8 11 1 -3
BITMAP
C3
C3
C3
C3
C3
C3
C3
FC
C0
C0
C0
ENDCHAR
STARTCHAR 00B6
ENCODING 182
SWIDTH 780 0
DWIDTH 13 0
BBX 11 14 1 -3
BITMAP
3FE0
3FE0
FE40
FE40
FE40
FE40
FE40
3E40
0240
0240
0240
0240
0240
0240
ENDCHAR
STARTCHAR 00B7
ENCODING 183
SWIDTH 240 0
DWIDTH 4 0
BBX 2 2 1 4
BITMAP
C0
C0
ENDCHAR
STARTCHAR 00B8
ENCODING 184
SWIDTH 300 0
DWIDTH 5 0
BBX 4 4 1 -3
BITMAP
40
40
20
F0
ENDCHAR
STARTCHAR 00B9
ENCODING 185
SWIDTH 300 0
DWIDTH 5 0
BBX 3 6 1 5
BITMAP
40
A0
20
20
20
20
ENDCHAR
STARTCHAR 00BA
ENCODING 186
SWIDTH 360 0
DWIDTH 6 0
BBX 4 6 1 5
BITMAP
60
90
90
F0
00
60
ENDCHAR
STARTCHAR 00BB
ENCODING 187
SWIDTH 840 0
DWIDTH 14 0
BBX 13 14 0 -2
BITMAP
C600
C600
2180
18C0
18C0
0430
0308
0308
0430
18C0
18C0
2180
C600
C600
ENDCHAR
STARTCHAR 00BC
ENCODING 188
SWIDTH 900 0
DWIDTH 15 0
BBX 13 11 1 0
BITMAP
4080
A080
2180
2100
2700
2600
0E38
0848
1848
1078
1008
ENDCHAR
STARTCHAR 00BD
ENCODING 189
SWIDTH 840 0
DWIDTH 14 0
BBX 12 11 1 0
BITMAP
4180
A180
2380
2200
2E00
2CE0
1C90
18E0
3880
2090
20E0
ENDCHAR
STARTCHAR 00BE
ENCODING 190
SWIDTH 960 0
DWIDTH 16 0
BBX 14 11 1 0
BITMAP
6060
9060
10E0
6080
9180
6100
071C
0614
0E24
083C
0804
ENDCHAR
STARTCHAR 00BF
ENCODING 191
SWIDTH 600 0
DWIDTH 10 0
BBX 8 11 1 0
BITMAP
18
18
00
18
18
38
FB
C3
C3
C3
3C
ENDCHAR
STARTCHAR 00C0
ENCODING 192
SWIDTH 600 0
DWIDTH 10 0
BBX 8 14 1 0
BITMAP
20
10
00
18
18
24
E7
C3
C3
FF
FF
C3
C3
C3
ENDCHAR
STARTCHAR 00C1
ENCODING 193
SWIDTH 600 0
DWIDTH 10 0
BBX 8 14 1 0
BITMAP
08
30
00
18
18
24
E7
C3
C3
FF
FF
C3
C3
C3
ENDCHAR
STARTCHAR 00C2
ENCODING 194
SWIDTH 600 0
DWIDTH 10 0
BBX 8 13 1 0
BITMAP
18
00
18
18
24
E7
C3
C3
FF
FF
C3
C3
C3
ENDCHAR
STARTCHAR 00C3
ENCODING 195
SWIDTH 600 0
DWIDTH 10 0
BBX 8 13 1 0
BITMAP
3C
00
18
18
24
E7
C3
C3
FF
FF
C3
C3
C3
ENDCHAR
STARTCHAR 00C4
ENCODING 196
SWIDTH 600 0
DWIDTH 10 0
BBX 8 13 1 0
BITMAP
66
00
18
18
24
E7
C3
C3
FF
FF
C3
C3
C3
ENDCHAR
STARTCHAR 00C5
ENCODING 197
SWIDTH 600 0
DWIDTH 10 0
BBX 8 13 1 0
BITMAP
18
00
18
18
24
E7
C3
C3
FF
FF
C3
C3
C3
ENDCHAR
STARTCHAR 00C6
ENCODING 198
SWIDTH 960 0
DWIDTH 16 0
BBX 14 11 1 0
BITMAP
18F0
18F0
270C
E70C
C300
C3E0
FFE0
FF00
C30C
C30C
C3F0
ENDCHAR
STARTCHAR 00C7
ENCODING 199
SWIDTH 600 0
DWIDTH 10 0
BBX 8 14 1 -3
BITMAP
3C
3C
C3
C3
C3
C0
C3
C3
C3
C3
3C
10
08
3C
ENDCHAR
STARTCHAR 00C8
ENCODING 200
SWIDTH 600 0
DWIDTH 10 0
BBX 8 14 1 0
BITMAP
20
10
00
3C
3C
C3
C3
C0
F8
F8
C0
C3
C3
3C
ENDCHAR
STARTCHAR 00C9
ENCODING 201
SWIDTH 600 0
DWIDTH 10 0
BBX 8 14 1 0
BITMAP
08
30
00
3C
3C
C3
C3
C0
F8
F8
C0
C3
C3
3C
ENDCHAR
STARTCHAR 00CA
ENCODING 202
SWIDTH 600 0
DWIDTH 10 0
BBX 8 13 1 0
BITMAP
18
00
3C
3C
C3
C3
C0
F8
F8
C0
C3
C3
3C
ENDCHAR
STARTCHAR 00CB
ENCODING 203
SWIDTH 600 0
DWIDTH 10 0
BBX 8 13 1 0
BITMAP
66
00
3C
3C
C3
C3
C0
F8
F8
C0
C3
C3
3C
ENDCHAR
STARTCHAR 00CC
ENCODING 204
SWIDTH 420 0
DWIDTH 7 0
BBX 5 14 1 0
BITMAP
80
60
00
F8
F8
20
20
20
20
20
20
20
20
F8
ENDCHAR
STARTCHAR 00CD
ENCODING 205
SWIDTH 420 0
DWIDTH 7 0
BBX 5 14 1 0
BITMAP
20
60
00
F8
F8
20
20
20
20
20
20
20
20
F8
ENDCHAR
STARTCHAR 00CE
ENCODING 206
SWIDTH 420 0
DWIDTH 7 0
BBX 5 13 1 0
BITMAP
70
00
F8
F8
20
20
20
20
20
20
20
20
F8
ENDCHAR
STARTCHAR 00CF
ENCODING 207
SWIDTH 420 0
DWIDTH 7 0
BBX 5 13 1 0
BITMAP
D8
00
F8
F8
20
20
20
20
20
20
20
20
F8
ENDCHAR
STARTCHAR 00D0
ENCODING 208
SWIDTH 600 0
DWIDTH 10 0
BBX 9 11 0 0
BITMAP
7C00
7C00
6200
6380
6180
F180
F180
6180
6200
6200
7C00
ENDCHAR
STARTCHAR 00D1
ENCODING 209
SWIDTH 600 0
DWIDTH 10 0
BBX 8 13 1 0
BITMAP
3C
00
C3
C3
E3
FB
DB
DB
DB
DB
C7
C7
C3
ENDCHAR
STARTCHAR 00D2
ENCODING 210
SWIDTH 600 0
DWIDTH 10 0
BBX 8 14 1 0
BITMAP
20
10
00
3C
3C
C3
C3
C3
C3
C3
C3
C3
C3
3C
ENDCHAR
STARTCHAR 00D3
ENCODING 211
SWIDTH 600 0
DWIDTH 10 0
BBX 8 14 1 0
BITMAP
08
30
00
3C
3C
C3
C3
C3
C3
C3
C3
C3
C3
3C
ENDCHAR
STARTCHAR 00D4
ENCODING 212
SWIDTH 600 0
DWIDTH 10 0
BBX 8 13 1 0
BITMAP
18
00
3C
3C
C3
C3
C3
C3
C3
C3
C3
C3
3C
ENDCHAR
STARTCHAR 00D5
ENCODING 213
SWIDTH 600 0
DWIDTH 10 0
BBX 8 13 1 0
BITMAP
3C
00
3C
3C
C3
C3
C3
C3
C3
C3
C3
C3
3C
ENDCHAR
STARTCHAR 00D6
ENCODING 214
SWIDTH 600 0
DWIDTH 10 0
BBX 8 13 1 0
BITMAP
66
00
3C
3C
C3
C3
C3
C3
C3
C3
C3
C3
3C
ENDCHAR
STARTCHAR 00D7
ENCODING 215
SWIDTH 600 0
DWIDTH 10 0
BBX 6 7 2 2
BITMAP
80
CC
7C
38
78
EC
C4
ENDCHAR
STARTCHAR 00D8
ENCODING 216
SWIDTH 600 0
DWIDTH 10 0
BBX 8 12 1 -1
BITMAP
3F
3E
C7
C7
CF
CB
DB
F3
F3
E3
7E
C0
ENDCHAR
STARTCHAR 00D9
ENCODING 217
SWIDTH 600 0
DWIDTH 10 0
BBX 8 14 1 0
BITMAP
20
10
00
C3
C3
C3
C3
C3
C3
C3
C3
C3
C3
3C
ENDCHAR
STARTCHAR 00DA
ENCODING 218
SWIDTH 600 0
DWIDTH 10 0
BBX 8 14 1 0
BITMAP
08
30
00
C3
C3
C3
C3
C3
C3
C3
C3
C3
C3
3C
ENDCHAR
STARTCHAR 00DB
ENCODING 219
SWIDTH 600 0
DWIDTH 10 0
BBX 8 13 1 0
BITMAP
18
00
C3
C3
C3
C3
C3
C3
C3
C3
C3
C3
3C
ENDCHAR
STARTCHAR 00DC
ENCODING 220
SWIDTH 600 0
DWIDTH 10 0
BBX 8 13 1 0
BITMAP
66
00
C3
C3
C3
C3
C3
C3
C3
C3
C3
C3
3C
ENDCHAR
STARTCHAR 00DD
ENCODING 221
SWIDTH 600 0
DWIDTH 10 0
BBX 8 14 1 0
BITMAP
08
30
00
C3
C3
C3
E7
24
18
18
18
18
18
18
ENDCHAR
STARTCHAR 00DE
ENCODING 222
SWIDTH 600 0
DWIDTH 10 0
BBX 8 11 1 0
BITMAP
C0
C0
FC
FC
C3
C3
C3
C3
FC
FC
C0
ENDCHAR
STARTCHAR 00DF
ENCODING 223
SWIDTH 600 0
DWIDTH 10 0
BBX 8 11 1 0
BITMAP
FC
FC
C3
C3
C3
DC
DF
C3
C3
C3
DC
ENDCHAR
STARTCHAR 00E0
ENCODING 224
SWIDTH 660 0
DWIDTH 11 0
BBX 9 11 1 0
BITMAP
2000
1800
0000
3C00
3C00
C300
C300
C300
C300
C300
3C80
ENDCHAR
STARTCHAR 00E1
ENCODING 225
SWIDTH 660 0
DWIDTH 11 0
BBX 9 11 1 0
BITMAP
0800
1000
0000
3C00
3C00
C300
C300
C300
C300
C300
3C80
ENDCHAR
STARTCHAR 00E2
ENCODING 226
SWIDTH 660 0
DWIDTH 11 0
BBX 9 10 1 0
BITMAP
1800
0000
3C00
3C00
C300
C300
C300
C300
C300
3C80
ENDCHAR
STARTCHAR 00E3
ENCODING 227
SWIDTH 660 0
DWIDTH 11 0
BBX 9 10 1 0
BITMAP
3C00
0000
3C00
3C00
C300
C300
C300
C300
C300
3C80
ENDCHAR
STARTCHAR 00E4
ENCODING 228
SWIDTH 660 0
DWIDTH 11 0
BBX 9 10 1 0
BITMAP
6600
0000
3C00
3C00
C300
C300
C300
C300
C300
3C80
ENDCHAR
STARTCHAR 00E5
ENCODING 229
SWIDTH 660 0
DWIDTH 11 0
BBX 9 10 1 0
BITMAP
1800
0000
3C00
3C00
C300
C300
C300
C300
C300
3C80
ENDCHAR
STARTCHAR 00E6
ENCODING 230
SWIDTH 1140 0
DWIDTH 19 0
BBX 17 8 1 0
BITMAP
3C1E00
3C1E00
C36180
C37D80
C37C00
C36180
C36180
3C9E00
ENDCHAR
STARTCHAR 00E7
ENCODING 231
SWIDTH 600 0
DWIDTH 10 0
BBX 8 11 1 -3
BITMAP
3C
3C
C3
C3
C0
C3
C3
3C
10
08
3C
ENDCHAR
STARTCHAR 00E8
ENCODING 232
SWIDTH 600 0
DWIDTH 10 0
BBX 8 11 1 0
BITMAP
20
10
00
3C
3C
C3
FB
F8
C3
C3
3C
ENDCHAR
STARTCHAR 00E9
ENCODING 233
SWIDTH 600 0
DWIDTH 10 0
BBX 8 11 1 0
BITMAP
08
30
00
3C
3C
C3
FB
F8
C3
C3
3C
ENDCHAR
STARTCHAR 00EA
ENCODING 234
SWIDTH 600 0
DWIDTH 10 0
BBX 8 10 1 0
BITMAP
18
00
3C
3C
C3
FB
F8
C3
C3
3C
ENDCHAR
STARTCHAR 00EB
ENCODING 235
SWIDTH 600 0
DWIDTH 10 0
BBX 8 10 1 0
BITMAP
66
00
3C
3C
C3
FB
F8
C3
C3
3C
ENDCHAR
STARTCHAR 00EC
ENCODING 236
SWIDTH 240 0
DWIDTH 4 0
BBX 3 11 0 0
BITMAP
80
40
00
60
60
60
60
60
60
60
60
ENDCHAR
STARTCHAR 00ED
ENCODING 237
SWIDTH 240 0
DWIDTH 4 0
BBX 3 11 0 0
BITMAP
20
C0
00
60
60
60
60
60
60
60
60
ENDCHAR
STARTCHAR 00EE
ENCODING 238
SWIDTH 240 0
DWIDTH 4 0
BBX 2 10 1 0
BITMAP
C0
00
C0
C0
C0
C0
C0
C0
C0
C0
ENDCHAR
STARTCHAR 00EF
ENCODING 239
SWIDTH 240 0
DWIDTH 4 0
BBX 4 10 0 0
BITMAP
B0
00
60
60
60
60
60
60
60
60
ENDCHAR
STARTCHAR 00F0
ENCODING 240
SWIDTH 600 0
DWIDTH 10 0
BBX 8 12 1 0
BITMAP
01
3F
3E
CF
DB
03
3F
FF
C3
C3
C3
3C
ENDCHAR
STARTCHAR 00F1
ENCODING 241
SWIDTH 600 0
DWIDTH 10 0
BBX 8 10 1 0
BITMAP
3C
00
FC
FC
C3
C3
C3
C3
C3
C3
ENDCHAR
STARTCHAR 00F2
ENCODING 242
SWIDTH 600 0
DWIDTH 10 0
BBX 8 11 1 0
BITMAP
20
10
00
3C
3C
C3
C3
C3
C3
C3
3C
ENDCHAR
STARTCHAR 00F3
ENCODING 243
SWIDTH 600 0
DWIDTH 10 0
BBX 8 11 1 0
BITMAP
08
30
00
3C
3C
C3
C3
C3
C3
C3
3C
ENDCHAR
STARTCHAR 00F4
ENCODING 244
SWIDTH 600 0
DWIDTH 10 0
BBX 8 10 1 0
BITMAP
18
00
3C
3C
C3
C3
C3
C3
C3
3C
ENDCHAR
STARTCHAR 00F5
ENCODING 245
SWIDTH 600 0
DWIDTH 10 0
BBX 8 10 1 0
BITMAP
3C
00
3C
3C
C3
C3
C3
C3
C3
3C
ENDCHAR
STARTCHAR 00F6
ENCODING 246
SWIDTH 600 0
DWIDTH 10 0
BBX 8 10 1 0
BITMAP
66
00
3C
3C
C3
C3
C3
C3
C3
3C
ENDCHAR
STARTCHAR 00F7
ENCODING 247
SWIDTH 600 0
DWIDTH 10 0
BBX 6 7 2 1
BITMAP
30
00
FC
FC
00
30
30
ENDCHAR
STARTCHAR 00F8
ENCODING 248
SWIDTH 600 0
DWIDTH 10 0
BBX 9 10 0 -1
BITMAP
0080
1F00
1F00
6780
6580
6D80
7980
7180
3E00
E000
ENDCHAR
STARTCHAR 00F9
ENCODING 249
SWIDTH 600 0
DWIDTH 10 0
BBX 8 11 1 0
BITMAP
20
10
00
C3
C3
C3
C3
C3
C3
C3
3C
ENDCHAR
STARTCHAR 00FA
ENCODING 250
SWIDTH 600 0
DWIDTH 10 0
BBX 8 11 1 0
BITMAP
08
30
00
C3
C3
C3
C3
C3
C3
C3
3C
ENDCHAR
STARTCHAR 00FB
ENCODING 251
SWIDTH 600 0
DWIDTH 10 0
BBX 8 10 1 0
BITMAP
18
00
C3
C3
C3
C3
C3
C3
C3
3C
ENDCHAR
STARTCHAR 00FC
ENCODING 252
SWIDTH 600 0
DWIDTH 10 0
BBX 8 10 1 0
BITMAP
66
00
C3
C3
C3
C3
C3
C3
C3
3C
ENDCHAR
STARTCHAR 00FD
ENCODING 253
SWIDTH 600 0
DWIDTH 10 0
BBX 8 14 1 -3
BITMAP
08
30
00
C3
C3
C3
C3
C3
3F
3F
03
C3
C3
3C
ENDCHAR
STARTCHAR 00FE
ENCODING 254
SWIDTH 600 0
DWIDTH 10 0
BBX 8 11 1 0
BITMAP
C0
C0
C0
FC
C3
C3
C3
C3
C3
FC
C0
ENDCHAR
STARTCHAR 00FF
ENCODING 255
SWIDTH 600 0
DWIDTH 10 0
BBX 8 13 1 -3
BITMAP
66
00
C3
C3
C3
C3
C3
3F
3F
03
C3
C3
3C
ENDCHAR
STARTCHAR 0100
ENCODING 256
SWIDTH 600 0
DWIDTH 10 0
BBX 8 13 1 0
BITMAP
3C
00
18
18
24
E7
C3
C3
FF
FF
C3
C3
C3
ENDCHAR
STARTCHAR 0101
ENCODING 257
SWIDTH 660 0
DWIDTH 11 0
BBX 9 10 1 0
BITMAP
3C00
0000
3C00
3C00
C300
C300
C300
C300
C300
3C80
ENDCHAR
STARTCHAR 0102
ENCODING 258
SWIDTH 600 0
DWIDTH 10 0
BBX 8 13 1 0
BITMAP
3C
00
18
18
24
E7
C3
C3
FF
FF
C3
C3
C3
ENDCHAR
STARTCHAR 0103
ENCODING 259
SWIDTH 660 0
DWIDTH 11 0
BBX 9 10 1 0
BITMAP
3C00
0000
3C00
3C00
C300
C300
C300
C300
C300
3C80
ENDCHAR
STARTCHAR 0104
ENCODING 260
SWIDTH 600 0
DWIDTH 10 0
BBX 9 14 1 -3
BITMAP
1800
1800
2400
E700
C300
C300
FF00
FF00
C300
C300
C300
0200
0200
0780
ENDCHAR
STARTCHAR 0105
ENCODING 261
SWIDTH 660 0
DWIDTH 11 0
BBX 10 11 1 -3
BITMAP
3C00
3C00
C300
C300
C300
C300
C300
3C80
0080
0100
03C0
ENDCHAR
STARTCHAR 0106
ENCODING 262
SWIDTH 600 0
DWIDTH 10 0
BBX 8 14 1 0
BITMAP
08
30
00
3C
3C
C3
C3
C3
C0
C3
C3
C3
C3
3C
ENDCHAR
STARTCHAR 0107
ENCODING 263
SWIDTH 600 0
DWIDTH 10 0
BBX 8 11 1 0
BITMAP
08
30
00
3C
3C
C3
C3
C0
C3
C3
3C
ENDCHAR
STARTCHAR 0108
ENCODING 264
SWIDTH 600 0
DWIDTH 10 0
BBX 8 13 1 0
BITMAP
18
00
3C
3C
C3
C3
C3
C0
C3
C3
C3
C3
3C
ENDCHAR
STARTCHAR 0109
ENCODING 265
SWIDTH 600 0
DWIDTH 10 0
BBX 8 10 1 0
BITMAP
18
00
3C
3C
C3
C3
C0
C3
C3
3C
ENDCHAR
STARTCHAR 010A
ENCODING 266
SWIDTH 600 0
DWIDTH 10 0
BBX 8 13 1 0
BITMAP
18
00
3C
3C
C3
C3
C3
C0
C3
C3
C3
C3
3C
ENDCHAR
STARTCHAR 010B
ENCODING 267
SWIDTH 600 0
DWIDTH 10 0
BBX 8 10 1 0
BITMAP
18
00
3C
3C
C3
C3
C0
C3
C3
3C
ENDCHAR
STARTCHAR 010C
ENCODING 268
SWIDTH 600 0
DWIDTH 10 0
BBX 8 13 1 0
BITMAP
18
00
3C
3C
C3
C3
C3
C0
C3
C3
C3
C3
3C
ENDCHAR
STARTCHAR 010D
ENCODING 269
SWIDTH 600 0
DWIDTH 10 0
BBX 8 10 1 0
BITMAP
18
00
3C
3C
C3
C3
C0
C3
C3
3C
ENDCHAR
STARTCHAR 010E
ENCODING 270
SWIDTH 600 0
DWIDTH 10 0
BBX 8 13 1 0
BITMAP
30
00
F8
F8
C4
C7
C3
C3
C3
C3
C4
C4
F8
ENDCHAR
STARTCHAR 010F
ENCODING 271
SWIDTH 600 0
DWIDTH 10 0
BBX 11 11 1 0
BITMAP
0300
03C0
03E0
3F40
3F00
C300
C300
C300
C300
C300
3C00
ENDCHAR
STARTCHAR 0110
ENCODING 272
SWIDTH 600 0
DWIDTH 10 0
BBX 9 11 0 0
BITMAP
7C00
7C00
6200
6380
6180
F180
F180
6180
6200
6200
7C00
ENDCHAR
STARTCHAR 0111
ENCODING 273
SWIDTH 600 0
DWIDTH 10 0
BBX 8 11 1 0
BITMAP
03
1F
1F
3F
3F
C3
C3
C3
C3
C3
3C
ENDCHAR
STARTCHAR 0112
ENCODING 274
SWIDTH 600 0
DWIDTH 10 0
BBX 8 13 1 0
BITMAP
3C
00
3C
3C
C3
C3
C0
F8
F8
C0
C3
C3
3C
ENDCHAR
STARTCHAR 0113
ENCODING 275
SWIDTH 600 0
DWIDTH 10 0
BBX 8 10 1 0
BITMAP
3C
00
3C
3C
C3
FB
F8
C3
C3
3C
ENDCHAR
STARTCHAR 0114
ENCODING 276
SWIDTH 600 0
DWIDTH 10 0
BBX 8 13 1 0
BITMAP
3C
00
3C
3C
C3
C3
C0
F8
F8
C0
C3
C3
3C
ENDCHAR
STARTCHAR 0115
ENCODING 277
SWIDTH 600 0
DWIDTH 10 0
BBX 8 10 1 0
BITMAP
3C
00
3C
3C
C3
FB
F8
C3
C3
3C
ENDCHAR
STARTCHAR 0116
ENCODING 278
SWIDTH 600 0
DWIDTH 10 0
BBX 8 13 1 0
BITMAP
18
00
3C
3C
C3
C3
C0
F8
F8
C0
C3
C3
3C
ENDCHAR
STARTCHAR 0117
ENCODING 279
SWIDTH 600 0
DWIDTH 10 0
BBX 8 10 1 0
BITMAP
18
00
3C
3C
C3
FB
F8
C3
C3
3C
ENDCHAR
STARTCHAR 0118
ENCODING 280
SWIDTH 600 0
DWIDTH 10 0
BBX 8 14 1 -3
BITMAP
3C
3C
C3
C3
C0
F8
F8
C0
C3
C3
3C
10
10
3C
ENDCHAR
STARTCHAR 0119
ENCODING 281
SWIDTH 600 0
DWIDTH 10 0
BBX 8 11 1 -3
BITMAP
3C
3C
C3
FB
F8
C3
C3
3C
10
10
3C
ENDCHAR
STARTCHAR 011A
ENCODING 282
SWIDTH 600 0
DWIDTH 10 0
BBX 8 13 1 0
BITMAP
18
00
3C
3C
C3
C3
C0
F8
F8
C0
C3
C3
3C
ENDCHAR
STARTCHAR 011B
ENCODING 283
SWIDTH 600 0
DWIDTH 10 0
BBX 8 10 1 0
BITMAP
18
00
3C
3C
C3
FB
F8
C3
C3
3C
ENDCHAR
STARTCHAR 011C
ENCODING 284
SWIDTH 600 0
DWIDTH 10 0
BBX 8 13 1 0
BITMAP
18
00
3C
3C
C3
C3
C3
D8
DF
C7
C3
C3
3C
ENDCHAR
STARTCHAR 011D
ENCODING 285
SWIDTH 600 0
DWIDTH 10 0
BBX 8 13 1 -3
BITMAP
18
00
3C
3C
C3
C3
C3
3F
3F
03
C3
C3
3C
ENDCHAR
STARTCHAR 011E
ENCODING 286
SWIDTH 600 0
DWIDTH 10 0
BBX 8 13 1 0
BITMAP
3C
00
3C
3C
C3
C3
C3
D8
DF
C7
C3
C3
3C
ENDCHAR
STARTCHAR 011F
ENCODING 287
SWIDTH 600 0
DWIDTH 10 0
BBX 8 13 1 -3
BITMAP
3C
00
3C
3C
C3
C3
C3
3F
3F
03
C3
C3
3C
ENDCHAR
STARTCHAR 0120
ENCODING 288
SWIDTH 600 0
DWIDTH 10 0
BBX 8 13 1 0
BITMAP
18
00
3C
3C
C3
C3
C3
D8
DF
C7
C3
C3
3C
ENDCHAR
STARTCHAR 0121
ENCODING 289
SWIDTH 600 0
DWIDTH 10 0
BBX 8 13 1 -3
BITMAP
18
00
3C
3C
C3
C3
C3
3F
3F
03
C3
C3
3C
ENDCHAR
STARTCHAR 0122
ENCODING 290
SWIDTH 600 0
DWIDTH 10 0
BBX 8 15 1 -4
BITMAP
3C
3C
C3
C3
C3
D8
DF
C7
C3
C3
3C
00
18
18
08
ENDCHAR
STARTCHAR 0123
ENCODING 291
SWIDTH 600 0
DWIDTH 10 0
BBX 8 15 1 -3
BITMAP
10
10
18
00
3C
3C
C3
C3
C3
3F
3F
03
C3
C3
3C
ENDCHAR
STARTCHAR 0124
ENCODING 292
SWIDTH 600 0
DWIDTH 10 0
BBX 8 13 1 0
BITMAP
18
00
C3
C3
C3
DB
DB
FF
FF
C3
C3
C3
C3
ENDCHAR
STARTCHAR 0125
ENCODING 293
SWIDTH 600 0
DWIDTH 10 0
BBX 8 13 1 0
BITMAP
18
00
C0
C0
C0
DC
DC
E3
E3
C3
C3
C3
C3
ENDCHAR
STARTCHAR 0126
ENCODING 294
SWIDTH 600 0
DWIDTH 10 0
BBX 8 11 1 0
BITMAP
C3
FF
FF
DB
DB
FF
FF
C3
C3
C3
C3
ENDCHAR
STARTCHAR 0127
ENCODING 295
SWIDTH 600 0
DWIDTH 10 0
BBX 9 11 0 0
BITMAP
6000
F000
F000
6E00
6E00
7180
7180
6180
6180
6180
6180
ENDCHAR
STARTCHAR 0128
ENCODING 296
SWIDTH 420 0
DWIDTH 7 0
BBX 5 13 1 0
BITMAP
F0
00
F8
F8
20
20
20
20
20
20
20
20
F8
ENDCHAR
STARTCHAR 0129
ENCODING 297
SWIDTH 240 0
DWIDTH 4 0
BBX 4 10 0 0
BITMAP
F0
00
60
60
60
60
60
60
60
60
ENDCHAR
STARTCHAR 012A
ENCODING 298
SWIDTH 420 0
DWIDTH 7 0
BBX 5 13 1 0
BITMAP
F8
00
F8
F8
20
20
20
20
20
20
20
20
F8
ENDCHAR
STARTCHAR 012B
ENCODING 299
SWIDTH 240 0
DWIDTH 4 0
BBX 4 10 0 0
BITMAP
F0
00
60
60
60
60
60
60
60
60
ENDCHAR
STARTCHAR 012C
ENCODING 300
SWIDTH 420 0
DWIDTH 7 0
BBX 5 13 1 0
BITMAP
F0
00
F8
F8
20
20
20
20
20
20
20
20
F8
ENDCHAR
STARTCHAR 012D
ENCODING 301
SWIDTH 240 0
DWIDTH 4 0
BBX 4 11 0 0
BITMAP
90
F0
00
60
60
60
60
60
60
60
60
ENDCHAR
STARTCHAR 012E
ENCODING 302
SWIDTH 420 0
DWIDTH 7 0
BBX 5 14 1 -3
BITMAP
F8
F8
20
20
20
20
20
20
20
20
F8
20
40
F0
ENDCHAR
STARTCHAR 012F
ENCODING 303
SWIDTH 240 0
DWIDTH 4 0
BBX 4 13 0 -3
BITMAP
60
00
60
60
60
60
60
60
60
60
40
40
F0
ENDCHAR
STARTCHAR 0130
ENCODING 304
SWIDTH 420 0
DWIDTH 7 0
BBX 5 13 1 0
BITMAP
20
00
F8
F8
20
20
20
20
20
20
20
20
F8
ENDCHAR
STARTCHAR 0131
ENCODING 305
SWIDTH 240 0
DWIDTH 4 0
BBX 2 8 1 0
BITMAP
C0
C0
C0
C0
C0
C0
C0
C0
ENDCHAR
STARTCHAR 0132
ENCODING 306
SWIDTH 1020 0
DWIDTH 17 0
BBX 14 11 1 0
BITMAP
F8F8
F8F8
2004
2004
2004
2004
2104
2104
2104
2104
F8F8
ENDCHAR
STARTCHAR 0133
ENCODING 307
SWIDTH 720 0
DWIDTH 12 0
BBX 10 8 1 0
BITMAP
C0C0
C0C0
C0C0
C0C0
C0C0
D8C0
D8C0
C700
ENDCHAR
STARTCHAR 0134
ENCODING 308
SWIDTH 600 0
DWIDTH 10 0
BBX 8 13 1 0
BITMAP
18
00
3C
3C
03
03
03
03
C3
C3
C3
C3
3C
ENDCHAR
STARTCHAR 0135
ENCODING 309
SWIDTH 480 0
DWIDTH 8 0
BBX 7 10 1 0
BITMAP
0E
00
04
04
04
04
04
C4
C4
38
ENDCHAR
STARTCHAR 0136
ENCODING 310
SWIDTH 600 0
DWIDTH 10 0
BBX 8 15 1 -4
BITMAP
23
23
C4
DC
D8
E0
F8
D8
C4
C4
C3
00
18
18
08
ENDCHAR
STARTCHAR 0137
ENCODING 311
SWIDTH 600 0
DWIDTH 10 0
BBX 8 15 1 -4
BITMAP
C0
C0
C0
C3
C3
DC
FC
E0
DC
DC
C3
00
18
18
08
ENDCHAR
STARTCHAR 0139
ENCODING 313
SWIDTH 600 0
DWIDTH 10 0
BBX 8 14 1 0
BITMAP
08
30
00
C0
C0
C0
C0
C0
C0
C0
C0
C3
C3
3C
ENDCHAR
STARTCHAR 013A
ENCODING 314
SWIDTH 240 0
DWIDTH 4 0
BBX 3 14 0 0
BITMAP
20
C0
00
60
60
60
60
60
60
60
60
60
60
60
ENDCHAR
STARTCHAR 013B
ENCODING 315
SWIDTH 600 0
DWIDTH 10 0
BBX 8 15 1 -4
BITMAP
C0
C0
C0
C0
C0
C0
C0
C0
C3
C3
3C
00
18
18
08
ENDCHAR
STARTCHAR 013C
ENCODING 316
SWIDTH 240 0
DWIDTH 4 0
BBX 2 15 1 -4
BITMAP
C0
C0
C0
C0
C0
C0
C0
C0
C0
C0
C0
00
C0
C0
40
ENDCHAR
STARTCHAR 013D
ENCODING 317
SWIDTH 600 0
DWIDTH 10 0
BBX 8 11 1 0
BITMAP
C0
CC
CE
C4
C0
C0
C0
C0
C3
C3
3C
ENDCHAR
STARTCHAR 013E
ENCODING 318
SWIDTH 240 0
DWIDTH 4 0
BBX 4 11 1 0
BITMAP
C0
F0
F0
D0
C0
C0
C0
C0
C0
C0
C0
ENDCHAR
STARTCHAR 013F
ENCODING 319
SWIDTH 600 0
DWIDTH 10 0
BBX 8 11 1 0
BITMAP
C0
C0
D8
D8
C0
C0
C0
C0
C3
C3
3C
ENDCHAR
STARTCHAR 0140
ENCODING 320
SWIDTH 240 0
DWIDTH 4 0
BBX 2 11 1 0
BITMAP
C0
C0
C0
C0
C0
C0
C0
C0
C0
C0
C0
ENDCHAR
STARTCHAR 0141
ENCODING 321
SWIDTH 600 0
DWIDTH 10 0
BBX 9 11 0 0
BITMAP
6000
6000
7800
7000
6000
6000
6000
E000
6180
6180
1E00
ENDCHAR
STARTCHAR 0142
ENCODING 322
SWIDTH 240 0
DWIDTH 4 0
BBX 4 11 0 0
BITMAP
60
60
60
70
60
60
60
E0
E0
60
60
ENDCHAR
STARTCHAR 0143
ENCODING 323
SWIDTH 600 0
DWIDTH 10 0
BBX 8 14 1 0
BITMAP
08
30
00
C3
C3
E3
FB
DB
DB
DB
DB
C7
C7
C3
ENDCHAR
STARTCHAR 0144
ENCODING 324
SWIDTH 600 0
DWIDTH 10 0
BBX 8 11 1 0
BITMAP
08
30
00
FC
FC
C3
C3
C3
C3
C3
C3
ENDCHAR
STARTCHAR 0145
ENCODING 325
SWIDTH 600 0
DWIDTH 10 0
BBX 8 15 1 -4
BITMAP
C3
C3
E3
FB
DB
DB
DB
DB
C7
C7
C3
00
18
18
08
ENDCHAR
STARTCHAR 0146
ENCODING 326
SWIDTH 600 0
DWIDTH 10 0
BBX 8 12 1 -4
BITMAP
FC
FC
C3
C3
C3
C3
C3
C3
00
18
18
08
ENDCHAR
STARTCHAR 0147
ENCODING 327
SWIDTH 600 0
DWIDTH 10 0
BBX 8 13 1 0
BITMAP
18
00
C3
C3
E3
FB
DB
DB
DB
DB
C7
C7
C3
ENDCHAR
STARTCHAR 0148
ENCODING 328
SWIDTH 600 0
DWIDTH 10 0
BBX 8 10 1 0
BITMAP
18
00
FC
FC
C3
C3
C3
C3
C3
C3
ENDCHAR
STARTCHAR 0149
ENCODING 329
SWIDTH 660 0
DWIDTH 11 0
BBX 10 11 0 0
BITMAP
C000
C000
2000
7F80
3F80
30C0
30C0
30C0
30C0
30C0
30C0
ENDCHAR
STARTCHAR 014A
ENCODING 330
SWIDTH 600 0
DWIDTH 10 0
BBX 8 15 1 -4
BITMAP
C3
C3
E3
FB
DB
DB
DB
DB
C7
C7
C3
03
63
7F
1C
ENDCHAR
STARTCHAR 014B
ENCODING 331
SWIDTH 600 0
DWIDTH 10 0
BBX 8 12 1 -4
BITMAP
FC
FC
C3
C3
C3
C3
C3
C3
03
63
7F
1C
ENDCHAR
STARTCHAR 014C
ENCODING 332
SWIDTH 600 0
DWIDTH 10 0
BBX 8 13 1 0
BITMAP
3C
00
3C
3C
C3
C3
C3
C3
C3
C3
C3
C3
3C
ENDCHAR
STARTCHAR 014D
ENCODING 333
SWIDTH 600 0
DWIDTH 10 0
BBX 8 10 1 0
BITMAP
3C
00
3C
3C
C3
C3
C3
C3
C3
3C
ENDCHAR
STARTCHAR 014E
ENCODING 334
SWIDTH 600 0
DWIDTH 10 0
BBX 8 13 1 0
BITMAP
3C
00
3C
3C
C3
C3
C3
C3
C3
C3
C3
C3
3C
ENDCHAR
STARTCHAR 014F
ENCODING 335
SWIDTH 600 0
DWIDTH 10 0
BBX 8 10 1 0
BITMAP
3C
00
3C
3C
C3
C3
C3
C3
C3
3C
ENDCHAR
STARTCHAR 0150
ENCODING 336
SWIDTH 600 0
DWIDTH 10 0
BBX 8 14 1 0
BITMAP
28
3C
00
3C
3C
C3
C3
C3
C3
C3
C3
C3
C3
3C
ENDCHAR
STARTCHAR 0151
ENCODING 337
SWIDTH 600 0
DWIDTH 10 0
BBX 8 11 1 0
BITMAP
28
3C
00
3C
3C
C3
C3
C3
C3
C3
3C
ENDCHAR
STARTCHAR 0152
ENCODING 338
SWIDTH 960 0
DWIDTH 16 0
BBX 14 11 1 0
BITMAP
3CF0
3CF0
C30C
C30C
C300
C3E0
C3E0
C300
C30C
C30C
3CF0
ENDCHAR
STARTCHAR 0153
ENCODING 339
SWIDTH 960 0
DWIDTH 16 0
BBX 14 8 1 0
BITMAP
3CF0
3CF0
C30C
C3EC
C3E0
C30C
C30C
3CF0
ENDCHAR
STARTCHAR 0154
ENCODING 340
SWIDTH 600 0
DWIDTH 10 0
BBX 8 14 1 0
BITMAP
08
30
00
3C
3C
C3
C3
C3
C3
FF
FC
C8
C8
C6
ENDCHAR
STARTCHAR 0155
ENCODING 341
SWIDTH 600 0
DWIDTH 10 0
BBX 8 11 1 0
BITMAP
08
30
00
3C
3C
C3
C3
C0
C0
C0
C0
ENDCHAR
STARTCHAR 0156
ENCODING 342
SWIDTH 600 0
DWIDTH 10 0
BBX 8 15 1 -4
BITMAP
3C
3C
C3
C3
C3
C3
FF
FC
C8
C8
C6
00
18
18
08
ENDCHAR
STARTCHAR 0157
ENCODING 343
SWIDTH 600 0
DWIDTH 10 0
BBX 8 12 1 -4
BITMAP
3C
3C
C3
C3
C0
C0
C0
C0
00
18
18
08
ENDCHAR
STARTCHAR 0158
ENCODING 344
SWIDTH 600 0
DWIDTH 10 0
BBX 8 13 1 0
BITMAP
18
00
3C
3C
C3
C3
C3
C3
FF
FC
C8
C8
C6
ENDCHAR
STARTCHAR 0159
ENCODING 345
SWIDTH 600 0
DWIDTH 10 0
BBX 8 10 1 0
BITMAP
18
00
3C
3C
C3
C3
C0
C0
C0
C0
ENDCHAR
STARTCHAR 015A
ENCODING 346
SWIDTH 600 0
DWIDTH 10 0
BBX 8 14 1 0
BITMAP
08
30
00
3C
3C
C3
C3
C0
3C
3F
03
C3
C3
3C
ENDCHAR
STARTCHAR 015B
ENCODING 347
SWIDTH 600 0
DWIDTH 10 0
BBX 8 11 1 0
BITMAP
04
18
00
3F
3F
C0
FC
3C
03
03
FC
ENDCHAR
STARTCHAR 015C
ENCODING 348
SWIDTH 600 0
DWIDTH 10 0
BBX 8 13 1 0
BITMAP
18
00
3C
3C
C3
C3
C0
3C
3F
03
C3
C3
3C
ENDCHAR
STARTCHAR 015D
ENCODING 349
SWIDTH 600 0
DWIDTH 10 0
BBX 8 10 1 0
BITMAP
1C
00
3F
3F
C0
FC
3C
03
03
FC
ENDCHAR
STARTCHAR 015E
ENCODING 350
SWIDTH 600 0
DWIDTH 10 0
BBX 8 14 1 -3
BITMAP
3C
3C
C3
C3
C0
3C
3F
03
C3
C3
3C
10
08
3C
ENDCHAR
STARTCHAR 015F
ENCODING 351
SWIDTH 600 0
DWIDTH 10 0
BBX 8 11 1 -3
BITMAP
3F
3F
C0
FC
3C
03
03
FC
10
08
3C
ENDCHAR
STARTCHAR 0160
ENCODING 352
SWIDTH 600 0
DWIDTH 10 0
BBX 8 13 1 0
BITMAP
18
00
3C
3C
C3
C3
C0
3C
3F
03
C3
C3
3C
ENDCHAR
STARTCHAR 0161
ENCODING 353
SWIDTH 600 0
DWIDTH 10 0
BBX 8 10 1 0
BITMAP
1C
00
3F
3F
C0
FC
3C
03
03
FC
ENDCHAR
STARTCHAR 0162
ENCODING 354
SWIDTH 600 0
DWIDTH 10 0
BBX 8 14 1 -3
BITMAP
3C
3C
DB
DB
18
18
18
18
18
18
18
10
08
3C
ENDCHAR
STARTCHAR 0163
ENCODING 355
SWIDTH 660 0
DWIDTH 11 0
BBX 9 14 1 -3
BITMAP
2000
2000
2000
FF00
FF00
2000
2000
2000
2080
2080
1F00
0400
0400
1E00
ENDCHAR
STARTCHAR 0164
ENCODING 356
SWIDTH 600 0
DWIDTH 10 0
BBX 8 13 1 0
BITMAP
18
00
3C
3C
DB
DB
18
18
18
18
18
18
18
ENDCHAR
STARTCHAR 0165
ENCODING 357
SWIDTH 660 0
DWIDTH 11 0
BBX 10 11 1 0
BITMAP
2000
20C0
20C0
FF40
FF00
2000
2000
2000
2080
2080
1F00
ENDCHAR
STARTCHAR 0166
ENCODING 358
SWIDTH 600 0
DWIDTH 10 0
BBX 8 11 1 0
BITMAP
3C
3C
DB
DB
3C
3C
18
18
18
18
18
ENDCHAR
STARTCHAR 0167
ENCODING 359
SWIDTH 660 0
DWIDTH 11 0
BBX 9 11 1 0
BITMAP
2000
2000
2000
FF00
FF00
2000
2000
F800
2080
2080
1F00
ENDCHAR
STARTCHAR 0168
ENCODING 360
SWIDTH 600 0
DWIDTH 10 0
BBX 8 13 1 0
BITMAP
3C
00
C3
C3
C3
C3
C3
C3
C3
C3
C3
C3
3C
ENDCHAR
STARTCHAR 0169
ENCODING 361
SWIDTH 600 0
DWIDTH 10 0
BBX 8 10 1 0
BITMAP
3C
00
C3
C3
C3
C3
C3
C3
C3
3C
ENDCHAR
STARTCHAR 016A
ENCODING 362
SWIDTH 600 0
DWIDTH 10 0
BBX 8 13 1 0
BITMAP
3C
00
C3
C3
C3
C3
C3
C3
C3
C3
C3
C3
3C
ENDCHAR
STARTCHAR 016B
ENCODING 363
SWIDTH 600 0
DWIDTH 10 0
BBX 8 10 1 0
BITMAP
3C
00
C3
C3
C3
C3
C3
C3
C3
3C
ENDCHAR
STARTCHAR 016C
ENCODING 364
SWIDTH 600 0
DWIDTH 10 0
BBX 8 13 1 0
BITMAP
3C
00
C3
C3
C3
C3
C3
C3
C3
C3
C3
C3
3C
ENDCHAR
STARTCHAR 016D
ENCODING 365
SWIDTH 600 0
DWIDTH 10 0
BBX 8 10 1 0
BITMAP
3C
00
C3
C3
C3
C3
C3
C3
C3
3C
ENDCHAR
STARTCHAR 016E
ENCODING 366
SWIDTH 600 0
DWIDTH 10 0
BBX 8 13 1 0
BITMAP
18
00
C3
C3
C3
C3
C3
C3
C3
C3
C3
C3
3C
ENDCHAR
STARTCHAR 016F
ENCODING 367
SWIDTH 600 0
DWIDTH 10 0
BBX 8 10 1 0
BITMAP
18
00
C3
C3
C3
C3
C3
C3
C3
3C
ENDCHAR
STARTCHAR 0170
ENCODING 368
SWIDTH 600 0
DWIDTH 10 0
BBX 8 14 1 0
BITMAP
28
3C
00
C3
C3
C3
C3
C3
C3
C3
C3
C3
C3
3C
ENDCHAR
STARTCHAR 0171
ENCODING 369
SWIDTH 600 0
DWIDTH 10 0
BBX 8 11 1 0
BITMAP
28
3C
00
C3
C3
C3
C3
C3
C3
C3
3C
ENDCHAR
STARTCHAR 0172
ENCODING 370
SWIDTH 600 0
DWIDTH 10 0
BBX 8 14 1 -3
BITMAP
C3
C3
C3
C3
C3
C3
C3
C3
C3
C3
3C
10
10
3C
ENDCHAR
STARTCHAR 0173
ENCODING 371
SWIDTH 600 0
DWIDTH 10 0
BBX 8 11 1 -3
BITMAP
C3
C3
C3
C3
C3
C3
C3
3C
10
10
3C
ENDCHAR
STARTCHAR 0174
ENCODING 372
SWIDTH 780 0
DWIDTH 13 0
BBX 11 13 1 0
BITMAP
0E00
0000
C060
C060
C460
C460
C460
C460
DF60
DB60
DB60
DB60
2080
ENDCHAR
STARTCHAR 0175
ENCODING 373
SWIDTH 780 0
DWIDTH 13 0
BBX 11 10 1 0
BITMAP
0E00
0000
C460
C460
C460
C460
C460
C460
C460
FB80
ENDCHAR
STARTCHAR 0176
ENCODING 374
SWIDTH 600 0
DWIDTH 10 0
BBX 8 13 1 0
BITMAP
18
00
C3
C3
C3
E7
24
18
18
18
18
18
18
ENDCHAR
STARTCHAR 0177
ENCODING 375
SWIDTH 600 0
DWIDTH 10 0
BBX 8 13 1 -3
BITMAP
18
00
C3
C3
C3
C3
C3
3F
3F
03
C3
C3
3C
ENDCHAR
STARTCHAR 0178
ENCODING 376
SWIDTH 600 0
DWIDTH 10 0
BBX 8 13 1 0
BITMAP
66
00
C3
C3
C3
E7
24
18
18
18
18
18
18
ENDCHAR
STARTCHAR 0179
ENCODING 377
SWIDTH 600 0
DWIDTH 10 0
BBX 8 14 1 0
BITMAP
08
30
00
FC
FC
C3
C3
03
3C
FC
C0
C3
C3
3F
ENDCHAR
STARTCHAR 017A
ENCODING 378
SWIDTH 600 0
DWIDTH 10 0
BBX 8 11 1 0
BITMAP
08
30
00
FF
FF
04
1C
18
20
20
FF
ENDCHAR
STARTCHAR 017B
ENCODING 379
SWIDTH 600 0
DWIDTH 10 0
BBX 8 13 1 0
BITMAP
18
00
FC
FC
C3
C3
03
3C
FC
C0
C3
C3
3F
ENDCHAR
STARTCHAR 017C
ENCODING 380
SWIDTH 600 0
DWIDTH 10 0
BBX 8 10 1 0
BITMAP
18
00
FF
FF
04
1C
18
20
20
FF
ENDCHAR
STARTCHAR 017D
ENCODING 381
SWIDTH 600 0
DWIDTH 10 0
BBX 8 13 1 0
BITMAP
18
00
FC
FC
C3
C3
03
3C
FC
C0
C3
C3
3F
ENDCHAR
STARTCHAR 017E
ENCODING 382
SWIDTH 600 0
DWIDTH 10 0
BBX 8 10 1 0
BITMAP
18
00
FF
FF
04
1C
18
20
20
FF
ENDCHAR
STARTCHAR 0192
ENCODING 402
SWIDTH 600 0
DWIDTH 10 0
BBX 10 13 -1 -2
BITMAP
0F00
0F00
30C0
30C0
3000
3E00
3E00
3000
3000
3000
3000
F000
F000
ENDCHAR
STARTCHAR 01FC
ENCODING 508
SWIDTH 960 0
DWIDTH 16 0
BBX 14 14 1 0
BITMAP
0100
0300
0000
18F0
18F0
270C
E70C
C300
C3E0
FFE0
FF00
C30C
C30C
C3F0
ENDCHAR
STARTCHAR 01FD
ENCODING 509
SWIDTH 1140 0
DWIDTH 19 0
BBX 17 11 1 0
BITMAP
004000
00C000
000000
3C1E00
3C1E00
C36180
C37D80
C37C00
C36180
C36180
3C9E00
ENDCHAR
STARTCHAR 01FE
ENCODING 510
SWIDTH 600 0
DWIDTH 10 0
BBX 8 16 1 -1
BITMAP
08
10
00
00
3F
3E
C7
C7
CF
CB
DB
F3
F3
E3
7E
C0
ENDCHAR
STARTCHAR 01FF
ENCODING 511
SWIDTH 600 0
DWIDTH 10 0
BBX 9 12 0 -1
BITMAP
0400
1800
0080
1F00
1F00
6780
6580
6D80
7980
7180
3E00
E000
ENDCHAR
STARTCHAR 0218
ENCODING 536
SWIDTH 600 0
DWIDTH 10 0
BBX 8 15 1 -4
BITMAP
3C
3C
C3
C3
C0
3C
3F
03
C3
C3
3C
00
18
18
08
ENDCHAR
STARTCHAR 0219
ENCODING 537
SWIDTH 600 0
DWIDTH 10 0
BBX 8 12 1 -4
BITMAP
3F
3F
C0
FC
3C
03
03
FC
00
18
18
08
ENDCHAR
STARTCHAR 021A
ENCODING 538
SWIDTH 600 0
DWIDTH 10 0
BBX 8 15 1 -4
BITMAP
3C
3C
DB
DB
18
18
18
18
18
18
18
00
18
18
08
ENDCHAR
STARTCHAR 021B
ENCODING 539
SWIDTH 660 0
DWIDTH 11 0
BBX 9 15 1 -4
BITMAP
2000
2000
2000
FF00
FF00
2000
2000
2000
2080
2080
1F00
0000
0C00
0E00
0400
ENDCHAR
STARTCHAR 0237
ENCODING 567
SWIDTH 480 0
DWIDTH 8 0
BBX 6 8 1 0
BITMAP
04
04
04
04
04
C4
C4
38
ENDCHAR
STARTCHAR 02C6
ENCODING 710
SWIDTH 300 0
DWIDTH 5 0
BBX 3 1 1 9
BITMAP
E0
ENDCHAR
STARTCHAR 02C7
ENCODING 711
SWIDTH 300 0
DWIDTH 5 0
BBX 3 1 1 9
BITMAP
E0
ENDCHAR
STARTCHAR 02D8
ENCODING 728
SWIDTH 300 0
DWIDTH 5 0
BBX 4 2 0 9
BITMAP
90
F0
ENDCHAR
STARTCHAR 02D9
ENCODING 729
SWIDTH 300 0
DWIDTH 5 0
BBX 2 2 2 9
BITMAP
C0
C0
ENDCHAR
STARTCHAR 02DA
ENCODING 730
SWIDTH 300 0
DWIDTH 5 0
BBX 1 2 2 9
BITMAP
80
80
ENDCHAR
STARTCHAR 02DB
ENCODING 731
SWIDTH 300 0
DWIDTH 5 0
BBX 3 4 1 -3
BITMAP
40
40
80
E0
ENDCHAR
STARTCHAR 02DC
ENCODING 732
SWIDTH 300 0
DWIDTH 5 0
BBX 5 1 0 9
BITMAP
F8
ENDCHAR
STARTCHAR 02DD
ENCODING 733
SWIDTH 300 0
DWIDTH 5 0
BBX 5 2 0 9
BITMAP
F0
28
ENDCHAR
STARTCHAR 0300
ENCODING 768
SWIDTH 0 0
DWIDTH 0 0
BBX 2 2 1 9
BITMAP
80
40
ENDCHAR
STARTCHAR 0301
ENCODING 769
SWIDTH 0 0
DWIDTH 0 0
BBX 3 2 1 9
BITMAP
20
C0
ENDCHAR
STARTCHAR 0302
ENCODING 770
SWIDTH 0 0
DWIDTH 0 0
BBX 3 1 1 9
BITMAP
E0
ENDCHAR
STARTCHAR 0303
ENCODING 771
SWIDTH 0 0
DWIDTH 0 0
BBX 5 1 0 9
BITMAP
F8
ENDCHAR
STARTCHAR 0304
ENCODING 772
SWIDTH 0 0
DWIDTH 0 0
BBX 5 1 0 9
BITMAP
F8
ENDCHAR
STARTCHAR 0306
ENCODING 774
SWIDTH 0 0
DWIDTH 0 0
BBX 5 1 0 9
BITMAP
F8
ENDCHAR
STARTCHAR 0307
ENCODING 775
SWIDTH 0 0
DWIDTH 0 0
BBX 1 1 2 9
BITMAP
80
ENDCHAR
STARTCHAR 0308
ENCODING 776
SWIDTH 0 0
DWIDTH 0 0
BBX 5 1 0 9
BITMAP
D8
ENDCHAR
STARTCHAR 030A
ENCODING 778
SWIDTH 0 0
DWIDTH 0 0
BBX 1 1 2 9
BITMAP
80
ENDCHAR
STARTCHAR 030B
ENCODING 779
SWIDTH 0 0
DWIDTH 0 0
BBX 5 2 0 9
BITMAP
A0
78
ENDCHAR
STARTCHAR 030C
ENCODING 780
SWIDTH 0 0
DWIDTH 0 0
BBX 3 1 1 9
BITMAP
E0
ENDCHAR
STARTCHAR 0312
ENCODING 786
SWIDTH 0 0
DWIDTH 0 0
BBX 3 3 1 9
BITMAP
40
80
60
ENDCHAR
STARTCHAR 0326
ENCODING 806
SWIDTH 0 0
DWIDTH 0 0
BBX 3 3 1 -4
BITMAP
C0
E0
40
ENDCHAR
STARTCHAR 0327
ENCODING 807
SWIDTH 0 0
DWIDTH 0 0
BBX 3 4 1 -3
BITMAP
40
40
20
E0
ENDCHAR
STARTCHAR 0328
ENCODING 808
SWIDTH 0 0
DWIDTH 0 0
BBX 3 4 1 -3
BITMAP
40
40
80
E0
ENDCHAR
STARTCHAR 0386
ENCODING 902
SWIDTH 600 0
DWIDTH 10 0
BBX 8 14 1 0
BITMAP
0C
18
00
18
18
24
E7
C3
C3
FF
FF
C3
C3
C3
ENDCHAR
STARTCHAR 0388
ENCODING 904
SWIDTH 600 0
DWIDTH 10 0
BBX 8 14 1 0
BITMAP
0C
18
00
3C
3C
C3
C3
C0
F8
F8
C0
C3
C3
3C
ENDCHAR
STARTCHAR 0389
ENCODING 905
SWIDTH 600 0
DWIDTH 10 0
BBX 8 13 1 0
BITMAP
10
00
C3
C3
C3
DB
DB
FF
FF
C3
C3
C3
C3
ENDCHAR
STARTCHAR 038A
ENCODING 906
SWIDTH 420 0
DWIDTH 7 0
BBX 5 13 1 0
BITMAP
20
00
F8
F8
20
20
20
20
20
20
20
20
F8
ENDCHAR
STARTCHAR 038C
ENCODING 908
SWIDTH 600 0
DWIDTH 10 0
BBX 8 13 1 0
BITMAP
10
00
3C
3C
C3
C3
C3
C3
C3
C3
C3
C3
3C
ENDCHAR
STARTCHAR 038E
ENCODING 910
SWIDTH 600 0
DWIDTH 10 0
BBX 8 13 1 0
BITMAP
10
00
C3
C3
C3
E7
24
18
18
18
18
18
18
ENDCHAR
STARTCHAR 038F
ENCODING 911
SWIDTH 600 0
DWIDTH 10 0
BBX 10 14 0 0
BITMAP
0600
0C00
0000
1E00
1E00
6180
6180
6180
6180
6180
6180
6180
6180
E1C0
ENDCHAR
STARTCHAR 0391
ENCODING 913
SWIDTH 600 0
DWIDTH 10 0
BBX 8 11 1 0
BITMAP
18
18
24
E7
C3
C3
FF
FF
C3
C3
C3
ENDCHAR
STARTCHAR 0392
ENCODING 914
SWIDTH 600 0
DWIDTH 10 0
BBX 8 11 1 0
BITMAP
3C
3C
C3
C3
C3
DC
DF
C3
C3
C3
3C
ENDCHAR
STARTCHAR 0393
ENCODING 915
SWIDTH 480 0
DWIDTH 8 0
BBX 6 11 1 0
BITMAP
FC
FC
C0
C0
C0
C0
C0
C0
C0
C0
C0
ENDCHAR
STARTCHAR 0395
ENCODING 917
SWIDTH 600 0
DWIDTH 10 0
BBX 8 11 1 0
BITMAP
3C
3C
C3
C3
C0
F8
F8
C0
C3
C3
3C
ENDCHAR
STARTCHAR 0396
ENCODING 918
SWIDTH 600 0
DWIDTH 10 0
BBX 8 11 1 0
BITMAP
FC
FC
C3
C3
03
3C
FC
C0
C3
C3
3F
ENDCHAR
STARTCHAR 0397
ENCODING 919
SWIDTH 600 0
DWIDTH 10 0
BBX 8 11 1 0
BITMAP
C3
C3
C3
DB
DB
FF
FF
C3
C3
C3
C3
ENDCHAR
STARTCHAR 0398
ENCODING 920
SWIDTH 600 0
DWIDTH 10 0
BBX 8 11 1 0
BITMAP
3C
3C
C3
C3
C3
DB
DB
C3
C3
C3
3C
ENDCHAR
STARTCHAR 0399
ENCODING 921
SWIDTH 420 0
DWIDTH 7 0
BBX 5 11 1 0
BITMAP
F8
F8
20
20
20
20
20
20
20
20
F8
ENDCHAR
STARTCHAR 039A
ENCODING 922
SWIDTH 600 0
DWIDTH 10 0
BBX 8 11 1 0
BITMAP
23
23
C4
DC
D8
E0
F8
D8
C4
C4
C3
ENDCHAR
STARTCHAR 039B
ENCODING 923
SWIDTH 600 0
DWIDTH 10 0
BBX 8 11 1 0
BITMAP
18
18
24
24
24
C3
C3
C3
C3
C3
C3
ENDCHAR
STARTCHAR 039C
ENCODING 924
SWIDTH 780 0
DWIDTH 13 0
BBX 11 11 1 0
BITMAP
2080
2080
DB60
DB60
DB60
C460
C460
C460
C460
C460
C060
ENDCHAR
STARTCHAR 039D
ENCODING 925
SWIDTH 600 0
DWIDTH 10 0
BBX 8 11 1 0
BITMAP
C3
C3
E3
FB
DB
DB
DB
DB
C7
C7
C3
ENDCHAR
STARTCHAR 039E
ENCODING 926
SWIDTH 420 0
DWIDTH 7 0
BBX 5 11 1 0
BITMAP
F8
F8
00
00
00
F8
F8
00
00
00
F8
ENDCHAR
STARTCHAR 039F
ENCODING 927
SWIDTH 600 0
DWIDTH 10 0
BBX 8 11 1 0
BITMAP
3C
3C
C3
C3
C3
C3
C3
C3
C3
C3
3C
ENDCHAR
STARTCHAR 03A0
ENCODING 928
SWIDTH 600 0
DWIDTH 10 0
BBX 8 10 1 0
BITMAP
FF
C3
C3
C3
C3
C3
C3
C3
C3
C3
ENDCHAR
STARTCHAR 03A1
ENCODING 929
SWIDTH 600 0
DWIDTH 10 0
BBX 8 11 1 0
BITMAP
3C
3C
C3
C3
C3
C3
FF
FC
C0
C0
C0
ENDCHAR
STARTCHAR 03A3
ENCODING 931
SWIDTH 780 0
DWIDTH 13 0
BBX 11 11 1 0
BITMAP
3FE0
3FE0
C000
C000
3800
0780
0780
3800
C000
C000
3FE0
ENDCHAR
STARTCHAR 03A4
ENCODING 932
SWIDTH 600 0
DWIDTH 10 0
BBX 8 11 1 0
BITMAP
3C
3C
DB
DB
18
18
18
18
18
18
18
ENDCHAR
STARTCHAR 03A5
ENCODING 933
SWIDTH 600 0
DWIDTH 10 0
BBX 8 11 1 0
BITMAP
C3
C3
C3
E7
24
18
18
18
18
18
18
ENDCHAR
STARTCHAR 03A6
ENCODING 934
SWIDTH 600 0
DWIDTH 10 0
BBX 8 11 1 0
BITMAP
18
18
2C
2C
DB
DB
DB
DB
2C
2C
18
ENDCHAR
STARTCHAR 03A7
ENCODING 935
SWIDTH 600 0
DWIDTH 10 0
BBX 8 11 1 0
BITMAP
C3
C3
24
24
24
18
3C
24
24
24
C3
ENDCHAR
STARTCHAR 03A8
ENCODING 936
SWIDTH 600 0
DWIDTH 10 0
BBX 8 11 1 0
BITMAP
18
DB
DB
DB
DB
DB
3C
3C
18
18
18
ENDCHAR
STARTCHAR 03AA
ENCODING 938
SWIDTH 420 0
DWIDTH 7 0
BBX 5 13 1 0
BITMAP
98
00
F8
F8
20
20
20
20
20
20
20
20
F8
ENDCHAR
STARTCHAR 03AB
ENCODING 939
SWIDTH 600 0
DWIDTH 10 0
BBX 8 13 1 0
BITMAP
24
00
C3
C3
C3
E7
24
18
18
18
18
18
18
ENDCHAR
STARTCHAR 03AC
ENCODING 940
SWIDTH 600 0
DWIDTH 10 0
BBX 8 11 1 -1
BITMAP
10
00
3C
3C
C3
C3
C3
C3
C3
3F
03
ENDCHAR
STARTCHAR 03AD
ENCODING 941
SWIDTH 600 0
DWIDTH 10 0
BBX 8 10 1 0
BITMAP
10
00
3C
3C
C3
FB
F8
C3
C3
3C
ENDCHAR
STARTCHAR 03AE
ENCODING 942
SWIDTH 600 0
DWIDTH 10 0
BBX 8 13 1 -3
BITMAP
10
00
FC
FC
C3
C3
C3
C3
C3
C3
03
03
03
ENDCHAR
STARTCHAR 03AF
ENCODING 943
SWIDTH 420 0
DWIDTH 7 0
BBX 5 13 1 0
BITMAP
20
00
F8
F8
20
20
20
20
20
20
20
20
F8
ENDCHAR
STARTCHAR 03B1
ENCODING 945
SWIDTH 600 0
DWIDTH 10 0
BBX 8 9 1 -1
BITMAP
3C
3C
C3
C3
C3
C3
C3
3F
03
ENDCHAR
STARTCHAR 03B2
ENCODING 946
SWIDTH 600 0
DWIDTH 10 0
BBX 8 14 1 -3
BITMAP
FC
FC
C3
C3
C3
DC
DF
C3
C3
C3
DC
C0
C0
C0
ENDCHAR
STARTCHAR 03B3
ENCODING 947
SWIDTH 600 0
DWIDTH 10 0
BBX 8 8 1 0
BITMAP
C3
EF
6C
6C
7C
18
18
18
ENDCHAR
STARTCHAR 03B4
ENCODING 948
SWIDTH 600 0
DWIDTH 10 0
BBX 8 11 1 0
BITMAP
0C
0C
18
3C
3C
C3
C3
C3
C3
C3
3C
ENDCHAR
STARTCHAR 03B5
ENCODING 949
SWIDTH 600 0
DWIDTH 10 0
BBX 8 8 1 0
BITMAP
3C
3C
C3
FB
F8
C3
C3
3C
ENDCHAR
STARTCHAR 03B6
ENCODING 950
SWIDTH 600 0
DWIDTH 10 0
BBX 8 14 1 -3
BITMAP
3C
3C
03
03
03
3C
FC
C0
C3
C3
3F
03
07
07
ENDCHAR
STARTCHAR 03B7
ENCODING 951
SWIDTH 600 0
DWIDTH 10 0
BBX 8 11 1 -3
BITMAP
FC
FC
C3
C3
C3
C3
C3
C3
03
03
03
ENDCHAR
STARTCHAR 03B8
ENCODING 952
SWIDTH 600 0
DWIDTH 10 0
BBX 8 8 1 0
BITMAP
3C
3C
C3
C3
DB
C3
C3
3C
ENDCHAR
STARTCHAR 03B9
ENCODING 953
SWIDTH 240 0
DWIDTH 4 0
BBX 2 11 1 0
BITMAP
C0
C0
00
C0
C0
C0
C0
C0
C0
C0
C0
ENDCHAR
STARTCHAR 03BA
ENCODING 954
SWIDTH 600 0
DWIDTH 10 0
BBX 8 11 1 0
BITMAP
C0
C0
C0
C3
C3
DC
FC
E0
DC
DC
C3
ENDCHAR
STARTCHAR 03BB
ENCODING 955
SWIDTH 600 0
DWIDTH 10 0
BBX 8 11 1 0
BITMAP
18
18
18
18
18
18
3C
24
C3
C3
C3
ENDCHAR
STARTCHAR 03BC
ENCODING 956
SWIDTH 780 0
DWIDTH 13 0
BBX 11 11 1 0
BITMAP
2080
2080
DB60
DB60
DB60
C460
C460
C460
C460
C460
C060
ENDCHAR
STARTCHAR 03BD
ENCODING 957
SWIDTH 600 0
DWIDTH 10 0
BBX 8 8 1 0
BITMAP
C3
C3
C3
EF
6C
6C
6C
18
ENDCHAR
STARTCHAR 03BE
ENCODING 958
SWIDTH 600 0
DWIDTH 10 0
BBX 9 14 0 -3
BITMAP
FE00
FE00
6180
6180
6000
1E00
7E00
6000
6180
6180
1F80
0180
0180
0F80
ENDCHAR
STARTCHAR 03BF
ENCODING 959
SWIDTH 600 0
DWIDTH 10 0
BBX 8 8 1 0
BITMAP
3C
3C
C3
C3
C3
C3
C3
3C
ENDCHAR
STARTCHAR 03C0
ENCODING 960
SWIDTH 960 0
DWIDTH 16 0
BBX 14 7 1 0
BITMAP
3CF0
DB6C
DB6C
1860
1860
1860
1860
ENDCHAR
STARTCHAR 03C1
ENCODING 961
SWIDTH 600 0
DWIDTH 10 0
BBX 8 11 1 -3
BITMAP
3C
3C
C3
C3
C3
C3
C3
FC
C0
C0
C0
ENDCHAR
STARTCHAR 03C3
ENCODING 963
SWIDTH 600 0
DWIDTH 10 0
BBX 9 8 1 0
BITMAP
3F80
3F80
C300
C300
C300
C300
C300
3C00
ENDCHAR
STARTCHAR 03C4
ENCODING 964
SWIDTH 600 0
DWIDTH 10 0
BBX 8 8 1 0
BITMAP
3C
3C
DB
DB
18
18
18
18
ENDCHAR
STARTCHAR 03C5
ENCODING 965
SWIDTH 600 0
DWIDTH 10 0
BBX 8 11 1 0
BITMAP
0C
18
00
C3
C3
C3
C3
C3
C3
C3
3C
ENDCHAR
STARTCHAR 03C6
ENCODING 966
SWIDTH 600 0
DWIDTH 10 0
BBX 8 11 1 0
BITMAP
18
18
3C
FF
DB
DB
DB
DB
3C
3C
18
ENDCHAR
STARTCHAR 03C7
ENCODING 967
SWIDTH 600 0
DWIDTH 10 0
BBX 8 8 1 0
BITMAP
C3
C3
24
3C
18
24
24
C3
ENDCHAR
STARTCHAR 03C8
ENCODING 968
SWIDTH 600 0
DWIDTH 10 0
BBX 8 11 1 0
BITMAP
18
18
DB
DB
DB
DB
DB
DB
3C
3C
18
ENDCHAR
STARTCHAR 03C9
ENCODING 969
SWIDTH 780 0
DWIDTH 13 0
BBX 11 8 1 0
BITMAP
C460
C460
C460
C460
C460
C460
C460
FB80
ENDCHAR
STARTCHAR 03CA
ENCODING 970
SWIDTH 420 0
DWIDTH 7 0
BBX 5 13 1 0
BITMAP
98
00
F8
F8
20
20
20
20
20
20
20
20
F8
ENDCHAR
STARTCHAR 03CB
ENCODING 971
SWIDTH 600 0
DWIDTH 10 0
BBX 8 13 1 0
BITMAP
24
00
C3
C3
C3
E7
24
18
18
18
18
18
18
ENDCHAR
STARTCHAR 03CC
ENCODING 972
SWIDTH 600 0
DWIDTH 10 0
BBX 8 10 1 0
BITMAP
10
00
3C
3C
C3
C3
C3
C3
C3
3C
ENDCHAR
STARTCHAR 03CD
ENCODING 973
SWIDTH 600 0
DWIDTH 10 0
BBX 8 10 1 0
BITMAP
10
00
C3
C3
C3
C3
C3
C3
C3
3C
ENDCHAR
STARTCHAR 03CE
ENCODING 974
SWIDTH 780 0
DWIDTH 13 0
BBX 11 10 1 0
BITMAP
0400
0000
C460
C460
C460
C460
C460
C460
C460
FB80
ENDCHAR
STARTCHAR 0401
ENCODING 1025
SWIDTH 600 0
DWIDTH 10 0
BBX 8 13 1 0
BITMAP
24
24
3C
3C
C3
C3
C0
F8
F8
C0
C3
C3
3C
ENDCHAR
STARTCHAR 0402
ENCODING 1026
SWIDTH 600 0
DWIDTH 10 0
BBX 10 11 -1 0
BITMAP
F800
F800
3000
3F00
3F00
30C0
30C0
30C0
30C0
30C0
0F00
ENDCHAR
STARTCHAR 0403
ENCODING 1027
SWIDTH 480 0
DWIDTH 8 0
BBX 6 10 1 0
BITMAP
FC
C0
C0
C0
C0
C0
C0
C0
C0
C0
ENDCHAR
STARTCHAR 0404
ENCODING 1028
SWIDTH 600 0
DWIDTH 10 0
BBX 8 11 1 0
BITMAP
3C
3C
C3
C3
C0
3C
FC
C0
C3
C3
3C
ENDCHAR
STARTCHAR 0405
ENCODING 1029
SWIDTH 600 0
DWIDTH 10 0
BBX 8 8 1 0
BITMAP
3F
3F
C0
FC
3C
03
03
FC
ENDCHAR
STARTCHAR 0407
ENCODING 1031
SWIDTH 300 0
DWIDTH 5 0
BBX 5 11 0 0
BITMAP
98
98
00
00
60
60
60
60
60
60
60
ENDCHAR
STARTCHAR 0408
ENCODING 1032
SWIDTH 600 0
DWIDTH 10 0
BBX 8 11 1 0
BITMAP
3C
3C
03
03
03
03
C3
C3
C3
C3
3C
ENDCHAR
STARTCHAR 0409
ENCODING 1033
SWIDTH 660 0
DWIDTH 11 0
BBX 9 10 1 0
BITMAP
7F80
6080
6080
6080
6080
6080
6080
6080
6080
E080
ENDCHAR
STARTCHAR 040A
ENCODING 1034
SWIDTH 960 0
DWIDTH 16 0
BBX 14 11 1 0
BITMAP
C300
C300
C300
C3F0
C3F0
FF0C
FF0C
C30C
C30C
C30C
C3F0
ENDCHAR
STARTCHAR 040B
ENCODING 1035
SWIDTH 600 0
DWIDTH 10 0
BBX 10 10 -1 0
BITMAP
F800
3000
3700
3700
38C0
38C0
30C0
30C0
30C0
30C0
ENDCHAR
STARTCHAR 040C
ENCODING 1036
SWIDTH 600 0
DWIDTH 10 0
BBX 8 11 1 0
BITMAP
23
23
C4
DC
D8
E0
F8
D8
C4
C4
C3
ENDCHAR
STARTCHAR 040E
ENCODING 1038
SWIDTH 600 0
DWIDTH 10 0
BBX 8 13 1 0
BITMAP
24
18
C3
C3
C3
E7
24
18
18
18
18
18
18
ENDCHAR
STARTCHAR 040F
ENCODING 1039
SWIDTH 600 0
DWIDTH 10 0
BBX 8 13 1 -2
BITMAP
C3
C3
C3
C3
C3
C3
C3
C3
C3
C3
FF
18
18
ENDCHAR
STARTCHAR 0410
ENCODING 1040
SWIDTH 600 0
DWIDTH 10 0
BBX 8 11 1 0
BITMAP
18
18
24
E7
C3
C3
FF
FF
C3
C3
C3
ENDCHAR
STARTCHAR 0411
ENCODING 1041
SWIDTH 600 0
DWIDTH 10 0
BBX 8 11 1 0
BITMAP
FC
FC
C3
C3
C0
FC
FF
C3
C3
C3
3C
ENDCHAR
STARTCHAR 0412
ENCODING 1042
SWIDTH 600 0
DWIDTH 10 0
BBX 8 11 1 0
BITMAP
3C
3C
C3
C3
C3
DC
DF
C3
C3
C3
3C
ENDCHAR
STARTCHAR 0413
ENCODING 1043
SWIDTH 480 0
DWIDTH 8 0
BBX 6 10 1 0
BITMAP
FC
C0
C0
C0
C0
C0
C0
C0
C0
C0
ENDCHAR
STARTCHAR 0414
ENCODING 1044
SWIDTH 660 0
DWIDTH 11 0
BBX 9 10 1 0
BITMAP
7F80
6080
6080
6080
6080
E080
E080
FF80
FF80
C080
ENDCHAR
STARTCHAR 0415
ENCODING 1045
SWIDTH 600 0
DWIDTH 10 0
BBX 8 11 1 0
BITMAP
3C
3C
C3
C3
C0
F8
F8
C0
C3
C3
3C
ENDCHAR
STARTCHAR 0416
ENCODING 1046
SWIDTH 960 0
DWIDTH 16 0
BBX 14 11 1 0
BITMAP
C30C
C30C
2310
3B70
1B60
0780
1FE0
1B60
2310
2310
C30C
ENDCHAR
STARTCHAR 0417
ENCODING 1047
SWIDTH 600 0
DWIDTH 10 0
BBX 8 11 1 0
BITMAP
3C
3C
C3
C3
03
3C
3F
03
C3
C3
3C
ENDCHAR
STARTCHAR 0418
ENCODING 1048
SWIDTH 600 0
DWIDTH 10 0
BBX 8 11 1 0
BITMAP
C3
C3
C7
DF
DB
DB
DB
DB
E3
E3
C3
ENDCHAR
STARTCHAR 0419
ENCODING 1049
SWIDTH 600 0
DWIDTH 10 0
BBX 8 13 1 0
BITMAP
24
18
C3
C3
C7
DF
DB
DB
DB
DB
E3
E3
C3
ENDCHAR
STARTCHAR 041A
ENCODING 1050
SWIDTH 600 0
DWIDTH 10 0
BBX 8 14 1 0
BITMAP
04
08
10
23
23
C4
DC
D8
E0
F8
D8
C4
C4
C3
ENDCHAR
STARTCHAR 041B
ENCODING 1051
SWIDTH 660 0
DWIDTH 11 0
BBX 9 10 1 0
BITMAP
7F80
6080
6080
6080
6080
6080
6080
6080
6080
E080
ENDCHAR
STARTCHAR 041C
ENCODING 1052
SWIDTH 780 0
DWIDTH 13 0
BBX 11 11 1 0
BITMAP
2080
2080
DB60
DB60
DB60
C460
C460
C460
C460
C460
C060
ENDCHAR
STARTCHAR 041D
ENCODING 1053
SWIDTH 600 0
DWIDTH 10 0
BBX 8 11 1 0
BITMAP
C3
C3
C3
C3
C3
FF
FF
C3
C3
C3
C3
ENDCHAR
STARTCHAR 0420
ENCODING 1056
SWIDTH 600 0
DWIDTH 10 0
BBX 8 11 1 0
BITMAP
3C
3C
C3
C3
C3
C3
FF
FC
C0
C0
C0
ENDCHAR
STARTCHAR 0421
ENCODING 1057
SWIDTH 600 0
DWIDTH 10 0
BBX 8 11 1 0
BITMAP
3C
3C
C3
C3
C3
C0
C3
C3
C3
C3
3C
ENDCHAR
STARTCHAR 0422
ENCODING 1058
SWIDTH 600 0
DWIDTH 10 0
BBX 8 11 1 0
BITMAP
3C
3C
DB
DB
18
18
18
18
18
18
18
ENDCHAR
STARTCHAR 0423
ENCODING 1059
SWIDTH 600 0
DWIDTH 10 0
BBX 8 11 1 0
BITMAP
C3
C3
C3
E7
24
18
18
18
18
18
18
ENDCHAR
STARTCHAR 0424
ENCODING 1060
SWIDTH 600 0
DWIDTH 10 0
BBX 8 11 1 0
BITMAP
18
18
3C
3C
DB
DB
DB
DB
3C
3C
18
ENDCHAR
STARTCHAR 0425
ENCODING 1061
SWIDTH 600 0
DWIDTH 10 0
BBX 8 11 1 0
BITMAP
C3
C3
24
24
24
18
3C
24
24
24
C3
ENDCHAR
STARTCHAR 0426
ENCODING 1062
SWIDTH 600 0
DWIDTH 10 0
BBX 8 12 1 -2
BITMAP
C3
C3
C3
C3
C3
C3
C3
C3
C3
FF
01
01
ENDCHAR
STARTCHAR 0427
ENCODING 1063
SWIDTH 600 0
DWIDTH 10 0
BBX 8 11 1 0
BITMAP
C3
C3
C3
C3
C3
3F
3F
03
03
03
03
ENDCHAR
STARTCHAR 0428
ENCODING 1064
SWIDTH 780 0
DWIDTH 13 0
BBX 11 11 1 0
BITMAP
C060
C060
C460
C460
C460
C460
DF60
DB60
DB60
DB60
2080
ENDCHAR
STARTCHAR 0429
ENCODING 1065
SWIDTH 780 0
DWIDTH 13 0
BBX 12 13 1 -2
BITMAP
C060
C060
C460
C460
C460
C460
DF60
DB60
DB60
DB60
20E0
0010
0020
ENDCHAR
STARTCHAR 042A
ENCODING 1066
SWIDTH 600 0
DWIDTH 10 0
BBX 10 11 -1 0
BITMAP
F800
F800
3000
3F00
3F00
30C0
30C0
30C0
30C0
30C0
0F00
ENDCHAR
STARTCHAR 042B
ENCODING 1067
SWIDTH 780 0
DWIDTH 13 0
BBX 11 11 1 0
BITMAP
C000
C000
C000
C060
C060
FC60
FC60
C360
C360
C360
3C60
ENDCHAR
STARTCHAR 042C
ENCODING 1068
SWIDTH 600 0
DWIDTH 10 0
BBX 8 11 1 0
BITMAP
C0
C0
C0
FC
FC
C3
C3
C3
C3
C3
3C
ENDCHAR
STARTCHAR 042D
ENCODING 1069
SWIDTH 600 0
DWIDTH 10 0
BBX 8 11 1 0
BITMAP
3C
3C
C3
C3
03
3C
3F
03
C3
C3
3C
ENDCHAR
STARTCHAR 042E
ENCODING 1070
SWIDTH 840 0
DWIDTH 14 0
BBX 12 11 1 0
BITMAP
C3E0
C3E0
CC30
CC30
CC30
FC30
FC30
CC30
CC30
CC30
C3E0
ENDCHAR
STARTCHAR 042F
ENCODING 1071
SWIDTH 600 0
DWIDTH 10 0
BBX 8 11 1 0
BITMAP
3C
3C
C3
C3
C3
C3
FF
3F
33
33
43
ENDCHAR
STARTCHAR 0430
ENCODING 1072
SWIDTH 660 0
DWIDTH 11 0
BBX 9 8 1 0
BITMAP
FC00
FC00
0300
FF00
FF00
C300
C300
3C80
ENDCHAR
STARTCHAR 0431
ENCODING 1073
SWIDTH 600 0
DWIDTH 10 0
BBX 8 11 1 0
BITMAP
3C
3C
C3
C3
C0
FC
FF
C3
C3
C3
3C
ENDCHAR
STARTCHAR 0432
ENCODING 1074
SWIDTH 600 0
DWIDTH 10 0
BBX 8 8 1 0
BITMAP
3C
3C
C3
C3
DC
C3
C3
3C
ENDCHAR
STARTCHAR 0433
ENCODING 1075
SWIDTH 480 0
DWIDTH 8 0
BBX 6 8 1 0
BITMAP
FC
FC
C0
C0
C0
C0
C0
C0
ENDCHAR
STARTCHAR 0434
ENCODING 1076
SWIDTH 660 0
DWIDTH 11 0
BBX 9 8 1 0
BITMAP
7F80
7F80
6080
E080
E080
FF80
FF80
C080
ENDCHAR
STARTCHAR 0435
ENCODING 1077
SWIDTH 600 0
DWIDTH 10 0
BBX 8 8 1 0
BITMAP
3C
3C
C3
FB
F8
C3
C3
3C
ENDCHAR
STARTCHAR 0436
ENCODING 1078
SWIDTH 780 0
DWIDTH 13 0
BBX 11 8 1 0
BITMAP
8C20
CCE0
6CC0
3F80
1F00
2C80
4CC0
8C60
ENDCHAR
STARTCHAR 0437
ENCODING 1079
SWIDTH 600 0
DWIDTH 10 0
BBX 8 8 1 0
BITMAP
3C
3C
C3
DF
1F
C3
C3
3C
ENDCHAR
STARTCHAR 0438
ENCODING 1080
SWIDTH 540 0
DWIDTH 9 0
BBX 8 8 1 0
BITMAP
C3
C3
C7
DF
DB
E3
E3
C3
ENDCHAR
STARTCHAR 0439
ENCODING 1081
SWIDTH 600 0
DWIDTH 10 0
BBX 8 10 1 0
BITMAP
24
18
C3
C3
C7
DF
DB
E3
E3
C3
ENDCHAR
STARTCHAR 043A
ENCODING 1082
SWIDTH 600 0
DWIDTH 10 0
BBX 8 8 1 0
BITMAP
C3
C3
DC
FC
E0
DC
DC
C3
ENDCHAR
STARTCHAR 043B
ENCODING 1083
SWIDTH 660 0
DWIDTH 11 0
BBX 9 7 1 0
BITMAP
7F80
6080
6080
6080
6080
6080
E080
ENDCHAR
STARTCHAR 043C
ENCODING 1084
SWIDTH 780 0
DWIDTH 13 0
BBX 11 8 1 0
BITMAP
2080
2080
DB60
DB60
DB60
C460
C460
C060
ENDCHAR
STARTCHAR 043D
ENCODING 1085
SWIDTH 600 0
DWIDTH 10 0
BBX 8 8 1 0
BITMAP
C3
C3
C3
C3
FF
C3
C3
C3
ENDCHAR
STARTCHAR 043E
ENCODING 1086
SWIDTH 600 0
DWIDTH 10 0
BBX 8 8 1 0
BITMAP
3C
3C
C3
C3
C3
C3
C3
3C
ENDCHAR
STARTCHAR 043F
ENCODING 1087
SWIDTH 600 0
DWIDTH 10 0
BBX 8 8 1 0
BITMAP
FF
FF
C3
C3
C3
C3
C3
C3
ENDCHAR
STARTCHAR 0440
ENCODING 1088
SWIDTH 600 0
DWIDTH 10 0
BBX 8 11 1 -3
BITMAP
3C
3C
C3
C3
C3
C3
C3
FC
C0
C0
C0
ENDCHAR
STARTCHAR 0441
ENCODING 1089
SWIDTH 600 0
DWIDTH 10 0
BBX 8 8 1 0
BITMAP
3C
3C
C3
C3
C0
C3
C3
3C
ENDCHAR
STARTCHAR 0442
ENCODING 1090
SWIDTH 600 0
DWIDTH 10 0
BBX 8 8 1 0
BITMAP
3C
3C
DB
DB
18
18
18
18
ENDCHAR
STARTCHAR 0443
ENCODING 1091
SWIDTH 600 0
DWIDTH 10 0
BBX 8 11 1 -3
BITMAP
C3
C3
C3
C3
C3
3F
3F
03
C3
C3
3C
ENDCHAR
STARTCHAR 0444
ENCODING 1092
SWIDTH 480 0
DWIDTH 8 0
BBX 7 11 0 0
BITMAP
18
18
3C
3C
DA
DA
DA
DA
3C
18
18
ENDCHAR
STARTCHAR 0445
ENCODING 1093
SWIDTH 600 0
DWIDTH 10 0
BBX 8 8 1 0
BITMAP
C3
C3
24
3C
18
24
24
C3
ENDCHAR
STARTCHAR 0446
ENCODING 1094
SWIDTH 600 0
DWIDTH 10 0
BBX 8 10 1 -2
BITMAP
C3
C3
C3
C3
C3
C3
C3
FF
01
01
ENDCHAR
STARTCHAR 0447
ENCODING 1095
SWIDTH 600 0
DWIDTH 10 0
BBX 8 8 1 0
BITMAP
C3
C3
C3
C3
C3
3F
3F
03
ENDCHAR
STARTCHAR 0448
ENCODING 1096
SWIDTH 780 0
DWIDTH 13 0
BBX 11 8 1 0
BITMAP
C460
C460
C460
C460
C460
C460
C460
FBE0
ENDCHAR
STARTCHAR 0449
ENCODING 1097
SWIDTH 780 0
DWIDTH 13 0
BBX 12 10 1 -2
BITMAP
C460
C460
C460
C460
C460
C460
C460
FBE0
0010
0020
ENDCHAR
STARTCHAR 044A
ENCODING 1098
SWIDTH 600 0
DWIDTH 10 0
BBX 9 11 0 0
BITMAP
E000
E000
6000
7E00
7E00
6180
6180
6180
6180
6180
1E00
ENDCHAR
STARTCHAR 044B
ENCODING 1099
SWIDTH 780 0
DWIDTH 13 0
BBX 11 11 1 0
BITMAP
C060
C060
C060
FC60
FC60
C360
C360
C360
C360
C360
3C60
ENDCHAR
STARTCHAR 044C
ENCODING 1100
SWIDTH 600 0
DWIDTH 10 0
BBX 8 11 0 0
BITMAP
C0
C0
C0
FC
FC
C3
C3
C3
C3
C3
3C
ENDCHAR
STARTCHAR 044D
ENCODING 1101
SWIDTH 600 0
DWIDTH 10 0
BBX 8 8 1 0
BITMAP
3C
3C
C3
DF
1F
C3
C3
3C
ENDCHAR
STARTCHAR 044E
ENCODING 1102
SWIDTH 840 0
DWIDTH 14 0
BBX 12 8 1 0
BITMAP
C3E0
C3E0
CC30
CC30
FC30
CC30
CC30
C3E0
ENDCHAR
STARTCHAR 044F
ENCODING 1103
SWIDTH 600 0
DWIDTH 10 0
BBX 8 8 1 0
BITMAP
3C
3C
C3
FF
3F
33
33
43
ENDCHAR
STARTCHAR 0451
ENCODING 1105
SWIDTH 600 0
DWIDTH 10 0
BBX 8 11 1 0
BITMAP
64
64
00
3C
3C
C3
FB
F8
C3
C3
3C
ENDCHAR
STARTCHAR 0452
ENCODING 1106
SWIDTH 600 0
DWIDTH 10 0
BBX 8 15 1 -4
BITMAP
C0
F0
F0
CE
CE
F1
F1
C1
C1
C1
C1
01
31
3F
0E
ENDCHAR
STARTCHAR 0453
ENCODING 1107
SWIDTH 600 0
DWIDTH 10 0
BBX 8 11 1 0
BITMAP
18
10
00
3C
3C
C3
C3
C0
C0
C0
C0
ENDCHAR
STARTCHAR 0454
ENCODING 1108
SWIDTH 600 0
DWIDTH 10 0
BBX 8 8 1 0
BITMAP
3C
3C
C3
FB
F8
C3
C3
3C
ENDCHAR
STARTCHAR 0455
ENCODING 1109
SWIDTH 600 0
DWIDTH 10 0
BBX 8 8 1 0
BITMAP
3F
3F
C0
FC
3C
03
03
FC
ENDCHAR
STARTCHAR 0456
ENCODING 1110
SWIDTH 240 0
DWIDTH 4 0
BBX 2 11 1 0
BITMAP
C0
C0
00
C0
C0
C0
C0
C0
C0
C0
C0
ENDCHAR
STARTCHAR 0457
ENCODING 1111
SWIDTH 360 0
DWIDTH 6 0
BBX 6 8 0 0
BITMAP
CC
CC
00
30
30
30
30
30
ENDCHAR
STARTCHAR 0458
ENCODING 1112
SWIDTH 480 0
DWIDTH 8 0
BBX 6 8 1 0
BITMAP
04
04
04
04
04
C4
C4
38
ENDCHAR
STARTCHAR 0459
ENCODING 1113
SWIDTH 960 0
DWIDTH 16 0
BBX 14 7 1 0
BITMAP
7F00
63F0
63F0
630C
630C
630C
E3F0
ENDCHAR
STARTCHAR 045A
ENCODING 1114
SWIDTH 840 0
DWIDTH 14 0
BBX 12 8 1 0
BITMAP
CC00
CC00
CFE0
CFE0
FC30
CC30
CC30
CFE0
ENDCHAR
STARTCHAR 045B
ENCODING 1115
SWIDTH 600 0
DWIDTH 10 0
BBX 8 10 1 0
BITMAP
E0
C0
DC
DC
E3
E3
C3
C3
C3
C3
ENDCHAR
STARTCHAR 045C
ENCODING 1116
SWIDTH 600 0
DWIDTH 10 0
BBX 8 11 1 0
BITMAP
18
10
00
C3
C3
DC
FC
E0
DC
DC
C3
ENDCHAR
STARTCHAR 045E
ENCODING 1118
SWIDTH 600 0
DWIDTH 10 0
BBX 8 14 1 -3
BITMAP
24
3C
00
C3
C3
C3
C3
C3
3F
3F
03
C3
C3
3C
ENDCHAR
STARTCHAR 045F
ENCODING 1119
SWIDTH 600 0
DWIDTH 10 0
BBX 8 9 1 -2
BITMAP
C3
C3
C3
C3
C3
C3
FF
18
18
ENDCHAR
STARTCHAR 0490
ENCODING 1168
SWIDTH 480 0
DWIDTH 8 0
BBX 6 12 1 0
BITMAP
04
04
FC
C0
C0
C0
C0
C0
C0
C0
C0
C0
ENDCHAR
STARTCHAR 0491
ENCODING 1169
SWIDTH 600 0
DWIDTH 10 0
BBX 8 11 1 0
BITMAP
C3
C3
C3
E7
24
18
18
18
18
18
18
ENDCHAR
STARTCHAR 1E80
ENCODING 7808
SWIDTH 780 0
DWIDTH 13 0
BBX 11 14 1 0
BITMAP
1000
0C00
0000
C060
C060
C460
C460
C460
C460
DF60
DB60
DB60
DB60
2080
ENDCHAR
STARTCHAR 1E81
ENCODING 7809
SWIDTH 780 0
DWIDTH 13 0
BBX 11 11 1 0
BITMAP
1000
0C00
0000
C460
C460
C460
C460
C460
C460
C460
FB80
ENDCHAR
STARTCHAR 1E82
ENCODING 7810
SWIDTH 780 0
DWIDTH 13 0
BBX 11 14 1 0
BITMAP
0400
0C00
0000
C060
C060
C460
C460
C460
C460
DF60
DB60
DB60
DB60
2080
ENDCHAR
STARTCHAR 1E83
ENCODING 7811
SWIDTH 780 0
DWIDTH 13 0
BBX 11 11 1 0
BITMAP
0400
0C00
0000
C460
C460
C460
C460
C460
C460
C460
FB80
ENDCHAR
STARTCHAR 1E84
ENCODING 7812
SWIDTH 780 0
DWIDTH 13 0
BBX 11 13 1 0
BITMAP
1B00
0000
C060
C060
C460
C460
C460
C460
DF60
DB60
DB60
DB60
2080
ENDCHAR
STARTCHAR 1E85
ENCODING 7813
SWIDTH 780 0
DWIDTH 13 0
BBX 11 10 1 0
BITMAP
1B00
0000
C460
C460
C460
C460
C460
C460
C460
FB80
ENDCHAR
STARTCHAR 1E9E
ENCODING 7838
SWIDTH 660 0
DWIDTH 11 0
BBX 9 11 1 0
BITMAP
FE00
FE00
C180
C180
C180
CE00
CF80
C180
C180
C180
DE00
ENDCHAR
STARTCHAR 1EF2
ENCODING 7922
SWIDTH 600 0
DWIDTH 10 0
BBX 8 14 1 0
BITMAP
20
10
00
C3
C3
C3
E7
24
18
18
18
18
18
18
ENDCHAR
STARTCHAR 1EF3
ENCODING 7923
SWIDTH 600 0
DWIDTH 10 0
BBX 8 14 1 -3
BITMAP
20
10
00
C3
C3
C3
C3
C3
3F
3F
03
C3
C3
3C
ENDCHAR
STARTCHAR 2013
ENCODING 8211
SWIDTH 420 0
DWIDTH 7 0
BBX 5 2 1 4
BITMAP
F8
F8
ENDCHAR
STARTCHAR 2014
ENCODING 8212
SWIDTH 480 0
DWIDTH 8 0
BBX 6 2 1 4
BITMAP
FC
FC
ENDCHAR
STARTCHAR 2018
ENCODING 8216
SWIDTH 240 0
DWIDTH 4 0
BBX 2 4 1 7
BITMAP
40
80
40
40
ENDCHAR
STARTCHAR 2019
ENCODING 8217
SWIDTH 240 0
DWIDTH 4 0
BBX 2 4 1 7
BITMAP
C0
C0
40
40
ENDCHAR
STARTCHAR 201A
ENCODING 8218
SWIDTH 240 0
DWIDTH 4 0
BBX 2 4 1 -2
BITMAP
C0
C0
40
40
ENDCHAR
STARTCHAR 201C
ENCODING 8220
SWIDTH 480 0
DWIDTH 8 0
BBX 6 4 1 7
BITMAP
48
90
4C
4C
ENDCHAR
STARTCHAR 201D
ENCODING 8221
SWIDTH 480 0
DWIDTH 8 0
BBX 6 4 1 7
BITMAP
D8
D8
44
48
ENDCHAR
STARTCHAR 201E
ENCODING 8222
SWIDTH 480 0
DWIDTH 8 0
BBX 6 4 1 -2
BITMAP
D8
D8
44
48
ENDCHAR
STARTCHAR 2020
ENCODING 8224
SWIDTH 420 0
DWIDTH 7 0
BBX 5 11 1 0
BITMAP
60
60
60
F8
60
60
60
60
60
60
60
ENDCHAR
STARTCHAR 2022
ENCODING 8226
SWIDTH 240 0
DWIDTH 4 0
BBX 2 2 1 4
BITMAP
C0
C0
ENDCHAR
STARTCHAR 2026
ENCODING 8230
SWIDTH 660 0
DWIDTH 11 0
BBX 9 2 1 0
BITMAP
D980
D980
ENDCHAR
STARTCHAR 2030
ENCODING 8240
SWIDTH 660 0
DWIDTH 11 0
BBX 10 12 0 -1
BITMAP
7800
4800
4800
4800
3000
0000
FF80
0000
3380
4A40
4A40
3380
ENDCHAR
STARTCHAR 2039
ENCODING 8249
SWIDTH 540 0
DWIDTH 9 0
BBX 8 14 1 -2
BITMAP
03
03
04
18
18
20
C0
C0
20
18
18
04
03
03
ENDCHAR
STARTCHAR 203A
ENCODING 8250
SWIDTH 540 0
DWIDTH 9 0
BBX 8 14 0 -2
BITMAP
C0
C0
30
08
08
06
01
01
06
08
08
30
C0
C0
ENDCHAR
STARTCHAR 203C
ENCODING 8252
SWIDTH 420 0
DWIDTH 7 0
BBX 5 11 1 0
BITMAP
D8
D8
D8
D8
D8
D8
D8
D8
00
00
D8
ENDCHAR
STARTCHAR 2070
ENCODING 8304
SWIDTH 360 0
DWIDTH 6 0
BBX 4 6 1 5
BITMAP
60
90
90
90
90
60
ENDCHAR
STARTCHAR 2074
ENCODING 8308
SWIDTH 360 0
DWIDTH 6 0
BBX 4 6 1 5
BITMAP
30
30
50
90
F0
10
ENDCHAR
STARTCHAR 2075
ENCODING 8309
SWIDTH 360 0
DWIDTH 6 0
BBX 4 6 1 5
BITMAP
60
90
90
40
B0
60
ENDCHAR
STARTCHAR 2076
ENCODING 8310
SWIDTH 360 0
DWIDTH 6 0
BBX 4 6 1 5
BITMAP
60
90
80
E0
90
60
ENDCHAR
STARTCHAR 2077
ENCODING 8311
SWIDTH 360 0
DWIDTH 6 0
BBX 4 6 1 5
BITMAP
60
90
10
10
10
10
ENDCHAR
STARTCHAR 2078
ENCODING 8312
SWIDTH 360 0
DWIDTH 6 0
BBX 4 6 1 5
BITMAP
60
90
90
60
90
60
ENDCHAR
STARTCHAR 2079
ENCODING 8313
SWIDTH 360 0
DWIDTH 6 0
BBX 4 6 1 5
BITMAP
60
90
90
70
90
60
ENDCHAR
STARTCHAR 2080
ENCODING 8320
SWIDTH 360 0
DWIDTH 6 0
BBX 4 5 1 0
BITMAP
F0
90
90
90
60
ENDCHAR
STARTCHAR 2081
ENCODING 8321
SWIDTH 300 0
DWIDTH 5 0
BBX 3 5 1 0
BITMAP
E0
20
20
20
20
ENDCHAR
STARTCHAR 2082
ENCODING 8322
SWIDTH 360 0
DWIDTH 6 0
BBX 4 5 1 0
BITMAP
F0
10
60
90
60
ENDCHAR
STARTCHAR 2083
ENCODING 8323
SWIDTH 360 0
DWIDTH 6 0
BBX 4 5 1 0
BITMAP
F0
10
60
90
60
ENDCHAR
STARTCHAR 2084
ENCODING 8324
SWIDTH 360 0
DWIDTH 6 0
BBX 4 5 1 0
BITMAP
30
50
90
F0
10
ENDCHAR
STARTCHAR 2085
ENCODING 8325
SWIDTH 360 0
DWIDTH 6 0
BBX 4 5 1 0
BITMAP
F0
90
40
B0
60
ENDCHAR
STARTCHAR 2086
ENCODING 8326
SWIDTH 360 0
DWIDTH 6 0
BBX 4 5 1 0
BITMAP
F0
80
E0
90
60
ENDCHAR
STARTCHAR 2087
ENCODING 8327
SWIDTH 360 0
DWIDTH 6 0
BBX 4 5 1 0
BITMAP
F0
10
10
10
10
ENDCHAR
STARTCHAR 2088
ENCODING 8328
SWIDTH 360 0
DWIDTH 6 0
BBX 4 5 1 0
BITMAP
F0
90
60
90
60
ENDCHAR
STARTCHAR 2089
ENCODING 8329
SWIDTH 360 0
DWIDTH 6 0
BBX 4 5 1 0
BITMAP
F0
90
70
90
60
ENDCHAR
STARTCHAR 20A1
ENCODING 8353
SWIDTH 600 0
DWIDTH 10 0
BBX 8 13 1 -1
BITMAP
0C
3C
3C
D7
DB
DB
D8
EB
EB
EB
EB
3C
30
ENDCHAR
STARTCHAR 20A3
ENCODING 8355
SWIDTH 600 0
DWIDTH 10 0
BBX 9 11 0 0
BITMAP
7E00
7E00
6180
6180
6000
7C00
7C00
6000
6000
6000
E000
ENDCHAR
STARTCHAR 20A4
ENCODING 8356
SWIDTH 660 0
DWIDTH 11 0
BBX 9 11 1 0
BITMAP
1F00
1F00
2080
2080
3C00
3C00
2000
3C00
2080
2080
FF00
ENDCHAR
STARTCHAR 20A7
ENCODING 8359
SWIDTH 1200 0
DWIDTH 20 0
BBX 18 11 1 0
BITMAP
3C0000
3C0000
C30000
C30000
C30000
C30000
FF4000
FC71C0
C04200
C04180
C03BC0
ENDCHAR
STARTCHAR 20AC
ENCODING 8364
SWIDTH 600 0
DWIDTH 10 0
BBX 8 11 1 0
BITMAP
3C
3C
C3
C3
FB
F8
FB
FB
C3
C3
3C
ENDCHAR
STARTCHAR 2116
ENCODING 8470
SWIDTH 1140 0
DWIDTH 19 0
BBX 17 11 1 0
BITMAP
C30000
C31F00
E32080
FB2080
DB2080
DB2080
DB2080
DB1F00
C70000
C70000
C31F00
ENDCHAR
STARTCHAR 2122
ENCODING 8482
SWIDTH 780 0
DWIDTH 13 0
BBX 11 6 1 5
BITMAP
6240
B360
2360
22A0
22A0
2220
ENDCHAR
STARTCHAR 2126
ENCODING 8486
SWIDTH 600 0
DWIDTH 10 0
BBX 10 11 0 0
BITMAP
1E00
1E00
6180
6180
6180
6180
6180
6180
6180
6180
E1C0
ENDCHAR
STARTCHAR 2153
ENCODING 8531
SWIDTH 900 0
DWIDTH 15 0
BBX 13 11 1 0
BITMAP
4080
A080
2180
2100
2700
2600
0E78
0808
1870
1048
1070
ENDCHAR
STARTCHAR 2154
ENCODING 8532
SWIDTH 900 0
DWIDTH 15 0
BBX 13 11 1 0
BITMAP
6040
9040
11C0
6180
9380
6300
0778
0408
1C30
1848
1830
ENDCHAR
STARTCHAR 215B
ENCODING 8539
SWIDTH 900 0
DWIDTH 15 0
BBX 13 11 1 0
BITMAP
4080
A080
2180
2100
2700
2600
0EF8
0888
1870
1088
1070
ENDCHAR
STARTCHAR 215C
ENCODING 8540
SWIDTH 960 0
DWIDTH 16 0
BBX 14 11 1 0
BITMAP
6060
9060
10E0
6080
9380
6300
073C
0624
0E38
0824
0838
ENDCHAR
STARTCHAR 215D
ENCODING 8541
SWIDTH 960 0
DWIDTH 16 0
BBX 14 11 1 0
BITMAP
6020
9020
90E0
40C0
B1C0
6100
033C
0224
0E18
0C24
0C18
ENDCHAR
STARTCHAR 215E
ENCODING 8542
SWIDTH 1020 0
DWIDTH 17 0
BBX 15 11 1 0
BITMAP
6020
9020
1060
1040
11C0
1180
03BE
0222
061C
0422
041C
ENDCHAR
STARTCHAR 2206
ENCODING 8710
SWIDTH 600 0
DWIDTH 10 0
BBX 8 11 1 0
BITMAP
18
18
24
E7
C3
C3
C3
C3
C3
C3
FF
ENDCHAR
STARTCHAR 220F
ENCODING 8719
SWIDTH 600 0
DWIDTH 10 0
BBX 8 11 1 0
BITMAP
FF
FF
C3
C3
C3
C3
C3
C3
C3
C3
C3
ENDCHAR
STARTCHAR 2211
ENCODING 8721
SWIDTH 780 0
DWIDTH 13 0
BBX 11 11 1 0
BITMAP
7FE0
7FE0
C000
F800
7800
0780
7F80
7800
C000
C000
7FE0
ENDCHAR
STARTCHAR 2212
ENCODING 8722
SWIDTH 600 0
DWIDTH 10 0
BBX 6 2 2 4
BITMAP
FC
FC
ENDCHAR
STARTCHAR 2215
ENCODING 8725
SWIDTH 540 0
DWIDTH 9 0
BBX 7 11 1 0
BITMAP
06
06
0E
08
18
10
70
60
E0
80
80
ENDCHAR
STARTCHAR 221E
ENCODING 8734
SWIDTH 960 0
DWIDTH 16 0
BBX 14 8 1 0
BITMAP
3CF0
3CF0
C30C
C30C
C30C
C30C
C30C
3CF0
ENDCHAR
STARTCHAR 2248
ENCODING 8776
SWIDTH 600 0
DWIDTH 10 0
BBX 4 5 3 2
BITMAP
D0
F0
00
D0
F0
ENDCHAR
STARTCHAR 2260
ENCODING 8800
SWIDTH 600 0
DWIDTH 10 0
BBX 6 9 2 0
BITMAP
18
18
FC
FC
30
FC
FC
60
60
ENDCHAR
STARTCHAR 2264
ENCODING 8804
SWIDTH 600 0
DWIDTH 10 0
BBX 6 13 2 -1
BITMAP
04
18
30
70
E0
80
60
30
18
04
00
00
FC
ENDCHAR
STARTCHAR 2265
ENCODING 8805
SWIDTH 600 0
DWIDTH 10 0
BBX 6 13 2 -1
BITMAP
80
60
30
38
1C
04
18
30
60
80
00
00
FC
ENDCHAR
STARTCHAR FB00
ENCODING 64256
SWIDTH 960 0
DWIDTH 16 0
BBX 14 11 1 0
BITMAP
3CF0
3CF0
C30C
C30C
C300
FBE0
FBE0
C300
C300
C300
C300
ENDCHAR
STARTCHAR FB01
ENCODING 64257
SWIDTH 600 0
DWIDTH 10 0
BBX 8 11 1 0
BITMAP
3C
3C
C3
C3
C0
FF
FF
C3
C3
C3
C3
ENDCHAR
STARTCHAR FB02
ENCODING 64258
SWIDTH 600 0
DWIDTH 10 0
BBX 8 11 1 0
BITMAP
3C
3C
C3
C3
C3
FB
FB
C3
C3
C3
C3
ENDCHAR
STARTCHAR FB03
ENCODING 64259
SWIDTH 960 0
DWIDTH 16 0
BBX 14 11 1 0
BITMAP
3CF0
3CF0
C30C
C30C
C300
FBFC
FBFC
C30C
C30C
C30C
C30C
ENDCHAR
STARTCHAR FB04
ENCODING 64260
SWIDTH 960 0
DWIDTH 16 0
BBX 14 11 1 0
BITMAP
3CF0
3CF0
C30C
C30C
C30C
FBEC
FBEC
C30C
C30C
C30C
C30C
ENDCHAR
STARTCHAR FB06
ENCODING 64262
SWIDTH 1140 0
DWIDTH 19 0
BBX 17 11 1 0
BITMAP
006000
006000
006000
3FFE00
3FFE00
C06000
FC6000
3C6000
036180
036180
FC3E00
ENDCHAR
ENDFONT
